<?xml version="1.0" encoding="UTF-8"?>
<svg version="1.1" xmlns="http://www.w3.org/2000/svg" width="2048" height="2048">
<path d="M0 0 C21.12 0 42.24 0 64 0 C64 10.56 64 21.12 64 32 C85.12 32 106.24 32 128 32 C128 42.56 128 53.12 128 64 C159.68 64 191.36 64 224 64 C224 74.56 224 85.12 224 96 C255.68 96 287.36 96 320 96 C320 106.56 320 117.12 320 128 C351.68 128 383.36 128 416 128 C416 138.56 416 149.12 416 160 C447.68 160 479.36 160 512 160 C512 170.56 512 181.12 512 192 C543.68 192 575.36 192 608 192 C608 720 608 1248 608 1792 C576.32 1792 544.64 1792 512 1792 C512 1802.56 512 1813.12 512 1824 C480.32 1824 448.64 1824 416 1824 C416 1834.56 416 1845.12 416 1856 C384.32 1856 352.64 1856 320 1856 C320 1866.56 320 1877.12 320 1888 C288.32 1888 256.64 1888 224 1888 C224 1898.56 224 1909.12 224 1920 C192.32 1920 160.64 1920 128 1920 C128 1930.56 128 1941.12 128 1952 C106.88 1952 85.76 1952 64 1952 C64 1962.56 64 1973.12 64 1984 C42.88 1984 21.76 1984 0 1984 C0 1973.44 0 1962.88 0 1952 C-21.12 1952 -42.24 1952 -64 1952 C-64 1941.44 -64 1930.88 -64 1920 C-95.68 1920 -127.36 1920 -160 1920 C-160 1909.44 -160 1898.88 -160 1888 C-191.68 1888 -223.36 1888 -256 1888 C-256 1877.44 -256 1866.88 -256 1856 C-287.68 1856 -319.36 1856 -352 1856 C-352 1845.44 -352 1834.88 -352 1824 C-383.68 1824 -415.36 1824 -448 1824 C-448 1813.44 -448 1802.88 -448 1792 C-479.68 1792 -511.36 1792 -544 1792 C-544 1264 -544 736 -544 192 C-512.32 192 -480.64 192 -448 192 C-448 181.44 -448 170.88 -448 160 C-416.32 160 -384.64 160 -352 160 C-352 149.44 -352 138.88 -352 128 C-320.32 128 -288.64 128 -256 128 C-256 117.44 -256 106.88 -256 96 C-224.32 96 -192.64 96 -160 96 C-160 85.44 -160 74.88 -160 64 C-128.32 64 -96.64 64 -64 64 C-64 53.44 -64 42.88 -64 32 C-42.88 32 -21.76 32 0 32 C0 21.44 0 10.88 0 0 Z " fill="#231F21" transform="translate(992,32)"/>
<path d="M0 0 C21.12 0 42.24 0 64 0 C64 10.56 64 21.12 64 32 C85.12 32 106.24 32 128 32 C128 42.56 128 53.12 128 64 C159.68 64 191.36 64 224 64 C224 74.56 224 85.12 224 96 C255.68 96 287.36 96 320 96 C320 106.56 320 117.12 320 128 C351.68 128 383.36 128 416 128 C416 138.56 416 149.12 416 160 C447.68 160 479.36 160 512 160 C512 170.56 512 181.12 512 192 C543.68 192 575.36 192 608 192 C608 720 608 1248 608 1792 C576.32 1792 544.64 1792 512 1792 C512 1802.56 512 1813.12 512 1824 C480.32 1824 448.64 1824 416 1824 C416 1834.56 416 1845.12 416 1856 C384.32 1856 352.64 1856 320 1856 C320 1866.56 320 1877.12 320 1888 C288.32 1888 256.64 1888 224 1888 C224 1898.56 224 1909.12 224 1920 C192.32 1920 160.64 1920 128 1920 C128 1930.56 128 1941.12 128 1952 C106.88 1952 85.76 1952 64 1952 C64 1962.56 64 1973.12 64 1984 C42.88 1984 21.76 1984 0 1984 C0 1973.44 0 1962.88 0 1952 C-21.12 1952 -42.24 1952 -64 1952 C-64 1941.44 -64 1930.88 -64 1920 C-95.68 1920 -127.36 1920 -160 1920 C-160 1909.44 -160 1898.88 -160 1888 C-191.68 1888 -223.36 1888 -256 1888 C-256 1877.44 -256 1866.88 -256 1856 C-287.68 1856 -319.36 1856 -352 1856 C-352 1845.44 -352 1834.88 -352 1824 C-383.68 1824 -415.36 1824 -448 1824 C-448 1813.44 -448 1802.88 -448 1792 C-479.68 1792 -511.36 1792 -544 1792 C-544 1264 -544 736 -544 192 C-512.32 192 -480.64 192 -448 192 C-448 181.44 -448 170.88 -448 160 C-416.32 160 -384.64 160 -352 160 C-352 149.44 -352 138.88 -352 128 C-320.32 128 -288.64 128 -256 128 C-256 117.44 -256 106.88 -256 96 C-224.32 96 -192.64 96 -160 96 C-160 85.44 -160 74.88 -160 64 C-128.32 64 -96.64 64 -64 64 C-64 53.44 -64 42.88 -64 32 C-42.88 32 -21.76 32 0 32 C0 21.44 0 10.88 0 0 Z M-32 64 C-32 74.56 -32 85.12 -32 96 C-63.68 96 -95.36 96 -128 96 C-128 106.56 -128 117.12 -128 128 C-159.68 128 -191.36 128 -224 128 C-224 138.56 -224 149.12 -224 160 C-255.68 160 -287.36 160 -320 160 C-320 170.56 -320 181.12 -320 192 C-351.68 192 -383.36 192 -416 192 C-416 202.56 -416 213.12 -416 224 C-447.68 224 -479.36 224 -512 224 C-512 593.6 -512 963.2 -512 1344 C-459.2 1344 -406.4 1344 -352 1344 C-352 1333.44 -352 1322.88 -352 1312 C-288.64 1312 -225.28 1312 -160 1312 C-160 1309.36 -160 1306.72 -160 1304 C-170.56 1304 -181.12 1304 -192 1304 C-192 1296.08 -192 1288.16 -192 1280 C-139.2 1280 -86.4 1280 -32 1280 C-32 1269.44 -32 1258.88 -32 1248 C20.8 1248 73.6 1248 128 1248 C128 1237.44 128 1226.88 128 1216 C159.68 1216 191.36 1216 224 1216 C224 1205.44 224 1194.88 224 1184 C255.68 1184 287.36 1184 320 1184 C320 1173.44 320 1162.88 320 1152 C351.68 1152 383.36 1152 416 1152 C416 1141.44 416 1130.88 416 1120 C437.12 1120 458.24 1120 480 1120 C480 1117.36 480 1114.72 480 1112 C469.44 1112 458.88 1112 448 1112 C448 1104.08 448 1096.16 448 1088 C479.68 1088 511.36 1088 544 1088 C544 1077.44 544 1066.88 544 1056 C554.56 1056 565.12 1056 576 1056 C576 781.44 576 506.88 576 224 C544.32 224 512.64 224 480 224 C480 213.44 480 202.88 480 192 C448.32 192 416.64 192 384 192 C384 181.44 384 170.88 384 160 C352.32 160 320.64 160 288 160 C288 149.44 288 138.88 288 128 C256.32 128 224.64 128 192 128 C192 117.44 192 106.88 192 96 C160.32 96 128.64 96 96 96 C96 85.44 96 74.88 96 64 C53.76 64 11.52 64 -32 64 Z " fill="#DC1731" transform="translate(992,32)"/>
<path d="M0 0 C21.12 0 42.24 0 64 0 C64 10.56 64 21.12 64 32 C85.12 32 106.24 32 128 32 C128 42.56 128 53.12 128 64 C159.68 64 191.36 64 224 64 C224 74.56 224 85.12 224 96 C255.68 96 287.36 96 320 96 C320 106.56 320 117.12 320 128 C351.68 128 383.36 128 416 128 C416 138.56 416 149.12 416 160 C447.68 160 479.36 160 512 160 C512 170.56 512 181.12 512 192 C543.68 192 575.36 192 608 192 C608 720 608 1248 608 1792 C576.32 1792 544.64 1792 512 1792 C512 1802.56 512 1813.12 512 1824 C480.32 1824 448.64 1824 416 1824 C416 1834.56 416 1845.12 416 1856 C384.32 1856 352.64 1856 320 1856 C320 1866.56 320 1877.12 320 1888 C288.32 1888 256.64 1888 224 1888 C224 1898.56 224 1909.12 224 1920 C192.32 1920 160.64 1920 128 1920 C128 1930.56 128 1941.12 128 1952 C106.88 1952 85.76 1952 64 1952 C64 1962.56 64 1973.12 64 1984 C42.88 1984 21.76 1984 0 1984 C0 1973.44 0 1962.88 0 1952 C-21.12 1952 -42.24 1952 -64 1952 C-64 1941.44 -64 1930.88 -64 1920 C-95.68 1920 -127.36 1920 -160 1920 C-160 1909.44 -160 1898.88 -160 1888 C-191.68 1888 -223.36 1888 -256 1888 C-256 1877.44 -256 1866.88 -256 1856 C-287.68 1856 -319.36 1856 -352 1856 C-352 1845.44 -352 1834.88 -352 1824 C-383.68 1824 -415.36 1824 -448 1824 C-448 1813.44 -448 1802.88 -448 1792 C-479.68 1792 -511.36 1792 -544 1792 C-544 1264 -544 736 -544 192 C-512.32 192 -480.64 192 -448 192 C-448 181.44 -448 170.88 -448 160 C-416.32 160 -384.64 160 -352 160 C-352 149.44 -352 138.88 -352 128 C-320.32 128 -288.64 128 -256 128 C-256 117.44 -256 106.88 -256 96 C-224.32 96 -192.64 96 -160 96 C-160 85.44 -160 74.88 -160 64 C-128.32 64 -96.64 64 -64 64 C-64 53.44 -64 42.88 -64 32 C-42.88 32 -21.76 32 0 32 C0 21.44 0 10.88 0 0 Z M-32 64 C-32 74.56 -32 85.12 -32 96 C-63.68 96 -95.36 96 -128 96 C-128 106.56 -128 117.12 -128 128 C-159.68 128 -191.36 128 -224 128 C-224 138.56 -224 149.12 -224 160 C-255.68 160 -287.36 160 -320 160 C-320 170.56 -320 181.12 -320 192 C-351.68 192 -383.36 192 -416 192 C-416 202.56 -416 213.12 -416 224 C-447.68 224 -479.36 224 -512 224 C-512 593.6 -512 963.2 -512 1344 C-459.2 1344 -406.4 1344 -352 1344 C-352 1333.44 -352 1322.88 -352 1312 C-288.64 1312 -225.28 1312 -160 1312 C-160 1309.36 -160 1306.72 -160 1304 C-170.56 1304 -181.12 1304 -192 1304 C-192 1296.08 -192 1288.16 -192 1280 C-139.2 1280 -86.4 1280 -32 1280 C-32 1269.44 -32 1258.88 -32 1248 C20.8 1248 73.6 1248 128 1248 C128 1237.44 128 1226.88 128 1216 C159.68 1216 191.36 1216 224 1216 C224 1205.44 224 1194.88 224 1184 C255.68 1184 287.36 1184 320 1184 C320 1173.44 320 1162.88 320 1152 C351.68 1152 383.36 1152 416 1152 C416 1141.44 416 1130.88 416 1120 C437.12 1120 458.24 1120 480 1120 C480 1117.36 480 1114.72 480 1112 C469.44 1112 458.88 1112 448 1112 C448 1104.08 448 1096.16 448 1088 C479.68 1088 511.36 1088 544 1088 C544 1077.44 544 1066.88 544 1056 C554.56 1056 565.12 1056 576 1056 C576 781.44 576 506.88 576 224 C544.32 224 512.64 224 480 224 C480 213.44 480 202.88 480 192 C448.32 192 416.64 192 384 192 C384 181.44 384 170.88 384 160 C352.32 160 320.64 160 288 160 C288 149.44 288 138.88 288 128 C256.32 128 224.64 128 192 128 C192 117.44 192 106.88 192 96 C160.32 96 128.64 96 96 96 C96 85.44 96 74.88 96 64 C53.76 64 11.52 64 -32 64 Z M544 1184 C544 1194.56 544 1205.12 544 1216 C512.32 1216 480.64 1216 448 1216 C448 1226.56 448 1237.12 448 1248 C416.32 1248 384.64 1248 352 1248 C352 1258.56 352 1269.12 352 1280 C309.76 1280 267.52 1280 224 1280 C224 1290.56 224 1301.12 224 1312 C181.76 1312 139.52 1312 96 1312 C96 1322.56 96 1333.12 96 1344 C11.52 1344 -72.96 1344 -160 1344 C-160 1354.56 -160 1365.12 -160 1376 C-223.36 1376 -286.72 1376 -352 1376 C-352 1386.56 -352 1397.12 -352 1408 C-404.8 1408 -457.6 1408 -512 1408 C-512 1524.16 -512 1640.32 -512 1760 C-480.32 1760 -448.64 1760 -416 1760 C-416 1770.56 -416 1781.12 -416 1792 C-384.32 1792 -352.64 1792 -320 1792 C-320 1802.56 -320 1813.12 -320 1824 C-288.32 1824 -256.64 1824 -224 1824 C-224 1834.56 -224 1845.12 -224 1856 C-192.32 1856 -160.64 1856 -128 1856 C-128 1866.56 -128 1877.12 -128 1888 C-96.32 1888 -64.64 1888 -32 1888 C-32 1898.56 -32 1909.12 -32 1920 C10.24 1920 52.48 1920 96 1920 C96 1909.44 96 1898.88 96 1888 C127.68 1888 159.36 1888 192 1888 C192 1877.44 192 1866.88 192 1856 C223.68 1856 255.36 1856 288 1856 C288 1845.44 288 1834.88 288 1824 C319.68 1824 351.36 1824 384 1824 C384 1813.44 384 1802.88 384 1792 C415.68 1792 447.36 1792 480 1792 C480 1781.44 480 1770.88 480 1760 C511.68 1760 543.36 1760 576 1760 C576 1569.92 576 1379.84 576 1184 C565.44 1184 554.88 1184 544 1184 Z " fill="#B5B1B2" transform="translate(992,32)"/>
<path d="M0 0 C10.56 0 21.12 0 32 0 C32 18.48 32 36.96 32 56 C50.48 56 68.96 56 88 56 C88 37.52 88 19.04 88 0 C119.68 0 151.36 0 184 0 C184 7.92 184 15.84 184 24 C176.08 24 168.16 24 160 24 C160 26.64 160 29.28 160 32 C178.48 32 196.96 32 216 32 C216 29.36 216 26.72 216 24 C208.08 24 200.16 24 192 24 C192 16.08 192 8.16 192 0 C231.6 0 271.2 0 312 0 C312 7.92 312 15.84 312 24 C304.08 24 296.16 24 288 24 C288 26.64 288 29.28 288 32 C306.48 32 324.96 32 344 32 C344 29.36 344 26.72 344 24 C336.08 24 328.16 24 320 24 C320 16.08 320 8.16 320 0 C359.6 0 399.2 0 440 0 C440 7.92 440 15.84 440 24 C432.08 24 424.16 24 416 24 C416 26.64 416 29.28 416 32 C434.48 32 452.96 32 472 32 C472 29.36 472 26.72 472 24 C464.08 24 456.16 24 448 24 C448 16.08 448 8.16 448 0 C487.6 0 527.2 0 568 0 C568 7.92 568 15.84 568 24 C560.08 24 552.16 24 544 24 C544 26.64 544 29.28 544 32 C562.48 32 580.96 32 600 32 C600 29.36 600 26.72 600 24 C592.08 24 584.16 24 576 24 C576 16.08 576 8.16 576 0 C615.6 0 655.2 0 696 0 C696 7.92 696 15.84 696 24 C688.08 24 680.16 24 672 24 C672 26.64 672 29.28 672 32 C690.48 32 708.96 32 728 32 C728 29.36 728 26.72 728 24 C720.08 24 712.16 24 704 24 C704 16.08 704 8.16 704 0 C735.68 0 767.36 0 800 0 C800 18.48 800 36.96 800 56 C818.48 56 836.96 56 856 56 C856 37.52 856 19.04 856 0 C869.2 0 882.4 0 896 0 C896 18.48 896 36.96 896 56 C885.44 56 874.88 56 864 56 C864 58.64 864 61.28 864 64 C871.92 64 879.84 64 888 64 C888 71.92 888 79.84 888 88 C869.52 88 851.04 88 832 88 C832 80.08 832 72.16 832 64 C829.36 64 826.72 64 824 64 C824 71.92 824 79.84 824 88 C805.52 88 787.04 88 768 88 C768 80.08 768 72.16 768 64 C775.92 64 783.84 64 792 64 C792 61.36 792 58.72 792 56 C773.52 56 755.04 56 736 56 C736 58.64 736 61.28 736 64 C743.92 64 751.84 64 760 64 C760 71.92 760 79.84 760 88 C741.52 88 723.04 88 704 88 C704 80.08 704 72.16 704 64 C701.36 64 698.72 64 696 64 C696 71.92 696 79.84 696 88 C677.52 88 659.04 88 640 88 C640 80.08 640 72.16 640 64 C647.92 64 655.84 64 664 64 C664 61.36 664 58.72 664 56 C645.52 56 627.04 56 608 56 C608 58.64 608 61.28 608 64 C615.92 64 623.84 64 632 64 C632 71.92 632 79.84 632 88 C613.52 88 595.04 88 576 88 C576 80.08 576 72.16 576 64 C573.36 64 570.72 64 568 64 C568 71.92 568 79.84 568 88 C549.52 88 531.04 88 512 88 C512 80.08 512 72.16 512 64 C519.92 64 527.84 64 536 64 C536 61.36 536 58.72 536 56 C517.52 56 499.04 56 480 56 C480 58.64 480 61.28 480 64 C487.92 64 495.84 64 504 64 C504 71.92 504 79.84 504 88 C485.52 88 467.04 88 448 88 C448 80.08 448 72.16 448 64 C445.36 64 442.72 64 440 64 C440 71.92 440 79.84 440 88 C421.52 88 403.04 88 384 88 C384 80.08 384 72.16 384 64 C391.92 64 399.84 64 408 64 C408 61.36 408 58.72 408 56 C389.52 56 371.04 56 352 56 C352 58.64 352 61.28 352 64 C359.92 64 367.84 64 376 64 C376 71.92 376 79.84 376 88 C357.52 88 339.04 88 320 88 C320 80.08 320 72.16 320 64 C317.36 64 314.72 64 312 64 C312 71.92 312 79.84 312 88 C293.52 88 275.04 88 256 88 C256 80.08 256 72.16 256 64 C263.92 64 271.84 64 280 64 C280 61.36 280 58.72 280 56 C261.52 56 243.04 56 224 56 C224 58.64 224 61.28 224 64 C231.92 64 239.84 64 248 64 C248 71.92 248 79.84 248 88 C229.52 88 211.04 88 192 88 C192 80.08 192 72.16 192 64 C189.36 64 186.72 64 184 64 C184 71.92 184 79.84 184 88 C165.52 88 147.04 88 128 88 C128 80.08 128 72.16 128 64 C135.92 64 143.84 64 152 64 C152 61.36 152 58.72 152 56 C133.52 56 115.04 56 96 56 C96 58.64 96 61.28 96 64 C103.92 64 111.84 64 120 64 C120 71.92 120 79.84 120 88 C101.52 88 83.04 88 64 88 C64 80.08 64 72.16 64 64 C61.36 64 58.72 64 56 64 C56 71.92 56 79.84 56 88 C37.52 88 19.04 88 0 88 C0 80.08 0 72.16 0 64 C7.92 64 15.84 64 24 64 C24 61.36 24 58.72 24 56 C16.08 56 8.16 56 0 56 C0 37.52 0 19.04 0 0 Z " fill="#FEFEFF" transform="translate(576,960)"/>
<path d="M0 0 C63.36 0 126.72 0 192 0 C192 10.56 192 21.12 192 32 C202.56 32 213.12 32 224 32 C224 84.8 224 137.6 224 192 C213.44 192 202.88 192 192 192 C192 202.56 192 213.12 192 224 C128.64 224 65.28 224 0 224 C0 213.44 0 202.88 0 192 C-10.56 192 -21.12 192 -32 192 C-32 139.2 -32 86.4 -32 32 C-21.44 32 -10.88 32 0 32 C0 21.44 0 10.88 0 0 Z " fill="#FEFEFE" transform="translate(1312,1504)"/>
<path d="M0 0 C63.36 0 126.72 0 192 0 C192 10.56 192 21.12 192 32 C202.56 32 213.12 32 224 32 C224 84.8 224 137.6 224 192 C213.44 192 202.88 192 192 192 C192 202.56 192 213.12 192 224 C128.64 224 65.28 224 0 224 C0 150.08 0 76.16 0 0 Z " fill="#FEFEFE" transform="translate(992,1504)"/>
<path d="M0 0 C73.92 0 147.84 0 224 0 C224 21.12 224 42.24 224 64 C171.2 64 118.4 64 64 64 C64 95.68 64 127.36 64 160 C85.12 160 106.24 160 128 160 C128 138.88 128 117.76 128 96 C159.68 96 191.36 96 224 96 C224 138.24 224 180.48 224 224 C150.08 224 76.16 224 0 224 C0 213.44 0 202.88 0 192 C-10.56 192 -21.12 192 -32 192 C-32 139.2 -32 86.4 -32 32 C-21.44 32 -10.88 32 0 32 C0 21.44 0 10.88 0 0 Z " fill="#FEFEFE" transform="translate(704,1504)"/>
<path d="M0 0 C10.56 0 21.12 0 32 0 C32 18.48 32 36.96 32 56 C50.48 56 68.96 56 88 56 C88 37.52 88 19.04 88 0 C119.68 0 151.36 0 184 0 C184 7.92 184 15.84 184 24 C176.08 24 168.16 24 160 24 C160 26.64 160 29.28 160 32 C178.48 32 196.96 32 216 32 C216 29.36 216 26.72 216 24 C208.08 24 200.16 24 192 24 C192 16.08 192 8.16 192 0 C231.6 0 271.2 0 312 0 C312 7.92 312 15.84 312 24 C304.08 24 296.16 24 288 24 C288 26.64 288 29.28 288 32 C306.48 32 324.96 32 344 32 C344 29.36 344 26.72 344 24 C336.08 24 328.16 24 320 24 C320 16.08 320 8.16 320 0 C359.6 0 399.2 0 440 0 C440 7.92 440 15.84 440 24 C432.08 24 424.16 24 416 24 C416 26.64 416 29.28 416 32 C434.48 32 452.96 32 472 32 C472 29.36 472 26.72 472 24 C464.08 24 456.16 24 448 24 C448 16.08 448 8.16 448 0 C479.68 0 511.36 0 544 0 C544 18.48 544 36.96 544 56 C562.48 56 580.96 56 600 56 C600 37.52 600 19.04 600 0 C613.2 0 626.4 0 640 0 C640 18.48 640 36.96 640 56 C629.44 56 618.88 56 608 56 C608 58.64 608 61.28 608 64 C615.92 64 623.84 64 632 64 C632 71.92 632 79.84 632 88 C613.52 88 595.04 88 576 88 C576 80.08 576 72.16 576 64 C573.36 64 570.72 64 568 64 C568 71.92 568 79.84 568 88 C549.52 88 531.04 88 512 88 C512 80.08 512 72.16 512 64 C519.92 64 527.84 64 536 64 C536 61.36 536 58.72 536 56 C517.52 56 499.04 56 480 56 C480 58.64 480 61.28 480 64 C487.92 64 495.84 64 504 64 C504 71.92 504 79.84 504 88 C485.52 88 467.04 88 448 88 C448 80.08 448 72.16 448 64 C445.36 64 442.72 64 440 64 C440 71.92 440 79.84 440 88 C421.52 88 403.04 88 384 88 C384 80.08 384 72.16 384 64 C391.92 64 399.84 64 408 64 C408 61.36 408 58.72 408 56 C389.52 56 371.04 56 352 56 C352 58.64 352 61.28 352 64 C359.92 64 367.84 64 376 64 C376 71.92 376 79.84 376 88 C357.52 88 339.04 88 320 88 C320 80.08 320 72.16 320 64 C317.36 64 314.72 64 312 64 C312 71.92 312 79.84 312 88 C293.52 88 275.04 88 256 88 C256 80.08 256 72.16 256 64 C263.92 64 271.84 64 280 64 C280 61.36 280 58.72 280 56 C261.52 56 243.04 56 224 56 C224 58.64 224 61.28 224 64 C231.92 64 239.84 64 248 64 C248 71.92 248 79.84 248 88 C229.52 88 211.04 88 192 88 C192 80.08 192 72.16 192 64 C189.36 64 186.72 64 184 64 C184 71.92 184 79.84 184 88 C165.52 88 147.04 88 128 88 C128 80.08 128 72.16 128 64 C135.92 64 143.84 64 152 64 C152 61.36 152 58.72 152 56 C133.52 56 115.04 56 96 56 C96 58.64 96 61.28 96 64 C103.92 64 111.84 64 120 64 C120 71.92 120 79.84 120 88 C101.52 88 83.04 88 64 88 C64 80.08 64 72.16 64 64 C61.36 64 58.72 64 56 64 C56 71.92 56 79.84 56 88 C37.52 88 19.04 88 0 88 C0 80.08 0 72.16 0 64 C7.92 64 15.84 64 24 64 C24 61.36 24 58.72 24 56 C16.08 56 8.16 56 0 56 C0 37.52 0 19.04 0 0 Z " fill="#FEFEFF" transform="translate(704,576)"/>
<path d="M0 0 C10.56 0 21.12 0 32 0 C32 21.12 32 42.24 32 64 C21.44 64 10.88 64 0 64 C0 74.56 0 85.12 0 96 C-21.12 96 -42.24 96 -64 96 C-64 106.56 -64 117.12 -64 128 C-95.68 128 -127.36 128 -160 128 C-160 138.56 -160 149.12 -160 160 C-191.68 160 -223.36 160 -256 160 C-256 170.56 -256 181.12 -256 192 C-298.24 192 -340.48 192 -384 192 C-384 202.56 -384 213.12 -384 224 C-436.8 224 -489.6 224 -544 224 C-544 234.56 -544 245.12 -544 256 C-596.8 256 -649.6 256 -704 256 C-704 253.36 -704 250.72 -704 248 C-714.56 248 -725.12 248 -736 248 C-736 240.08 -736 232.16 -736 224 C-683.2 224 -630.4 224 -576 224 C-576 213.44 -576 202.88 -576 192 C-523.2 192 -470.4 192 -416 192 C-416 181.44 -416 170.88 -416 160 C-384.32 160 -352.64 160 -320 160 C-320 149.44 -320 138.88 -320 128 C-288.32 128 -256.64 128 -224 128 C-224 117.44 -224 106.88 -224 96 C-192.32 96 -160.64 96 -128 96 C-128 85.44 -128 74.88 -128 64 C-106.88 64 -85.76 64 -64 64 C-64 61.36 -64 58.72 -64 56 C-74.56 56 -85.12 56 -96 56 C-96 48.08 -96 40.16 -96 32 C-64.32 32 -32.64 32 0 32 C0 21.44 0 10.88 0 0 Z " fill="#FEFEFF" transform="translate(1536,1088)"/>
<path d="M0 0 C10.56 0 21.12 0 32 0 C32 18.48 32 36.96 32 56 C50.48 56 68.96 56 88 56 C88 37.52 88 19.04 88 0 C111.76 0 135.52 0 160 0 C160 18.48 160 36.96 160 56 C178.48 56 196.96 56 216 56 C216 37.52 216 19.04 216 0 C239.76 0 263.52 0 288 0 C288 18.48 288 36.96 288 56 C306.48 56 324.96 56 344 56 C344 37.52 344 19.04 344 0 C357.2 0 370.4 0 384 0 C384 18.48 384 36.96 384 56 C373.44 56 362.88 56 352 56 C352 58.64 352 61.28 352 64 C359.92 64 367.84 64 376 64 C376 71.92 376 79.84 376 88 C357.52 88 339.04 88 320 88 C320 80.08 320 72.16 320 64 C317.36 64 314.72 64 312 64 C312 71.92 312 79.84 312 88 C293.52 88 275.04 88 256 88 C256 80.08 256 72.16 256 64 C263.92 64 271.84 64 280 64 C280 61.36 280 58.72 280 56 C261.52 56 243.04 56 224 56 C224 58.64 224 61.28 224 64 C231.92 64 239.84 64 248 64 C248 71.92 248 79.84 248 88 C229.52 88 211.04 88 192 88 C192 80.08 192 72.16 192 64 C189.36 64 186.72 64 184 64 C184 71.92 184 79.84 184 88 C165.52 88 147.04 88 128 88 C128 80.08 128 72.16 128 64 C135.92 64 143.84 64 152 64 C152 61.36 152 58.72 152 56 C133.52 56 115.04 56 96 56 C96 58.64 96 61.28 96 64 C103.92 64 111.84 64 120 64 C120 71.92 120 79.84 120 88 C101.52 88 83.04 88 64 88 C64 80.08 64 72.16 64 64 C61.36 64 58.72 64 56 64 C56 71.92 56 79.84 56 88 C37.52 88 19.04 88 0 88 C0 80.08 0 72.16 0 64 C7.92 64 15.84 64 24 64 C24 61.36 24 58.72 24 56 C16.08 56 8.16 56 0 56 C0 37.52 0 19.04 0 0 Z " fill="#FEFEFF" transform="translate(832,320)"/>
<path d="M0 0 C31.68 0 63.36 0 96 0 C96 73.92 96 147.84 96 224 C64.32 224 32.64 224 0 224 C0 150.08 0 76.16 0 0 Z " fill="#FEFEFE" transform="translate(512,1504)"/>
<path d="M0 0 C63.36 0 126.72 0 192 0 C192 21.12 192 42.24 192 64 C75.84 64 -40.32 64 -160 64 C-160 53.44 -160 42.88 -160 32 C-107.2 32 -54.4 32 0 32 C0 21.44 0 10.88 0 0 Z " fill="#B6B1B2" transform="translate(640,1344)"/>
<path d="M0 0 C5.28 0 10.56 0 16 0 C16 50.16 16 100.32 16 152 C5.44 152 -5.12 152 -16 152 C-16 162.56 -16 173.12 -16 184 C-79.36 184 -142.72 184 -208 184 C-208 176.08 -208 168.16 -208 160 C-149.92 160 -91.84 160 -32 160 C-32 149.44 -32 138.88 -32 128 C-21.44 128 -10.88 128 0 128 C0 85.76 0 43.52 0 0 Z " fill="#251E20" transform="translate(1536,1568)"/>
<path d="M0 0 C5.28 0 10.56 0 16 0 C16 50.16 16 100.32 16 152 C5.44 152 -5.12 152 -16 152 C-16 162.56 -16 173.12 -16 184 C-79.36 184 -142.72 184 -208 184 C-208 176.08 -208 168.16 -208 160 C-149.92 160 -91.84 160 -32 160 C-32 149.44 -32 138.88 -32 128 C-21.44 128 -10.88 128 0 128 C0 85.76 0 43.52 0 0 Z " fill="#251E20" transform="translate(1216,1568)"/>
<path d="M0 0 C5.28 0 10.56 0 16 0 C16 39.6 16 79.2 16 120 C-57.92 120 -131.84 120 -208 120 C-208 112.08 -208 104.16 -208 96 C-139.36 96 -70.72 96 0 96 C0 64.32 0 32.64 0 0 Z " fill="#251E20" transform="translate(928,1632)"/>
<path d="M0 0 C21.12 0 42.24 0 64 0 C64 31.68 64 63.36 64 96 C42.88 96 21.76 96 0 96 C0 64.32 0 32.64 0 0 Z " fill="#DA1831" transform="translate(1376,1568)"/>
<path d="M0 0 C63.36 0 126.72 0 192 0 C192 10.56 192 21.12 192 32 C128.64 32 65.28 32 0 32 C0 21.44 0 10.88 0 0 Z " fill="#FEFEFE" transform="translate(640,1344)"/>
<path d="M0 0 C5.28 0 10.56 0 16 0 C16 21.12 16 42.24 16 64 C-36.8 64 -89.6 64 -144 64 C-144 87.76 -144 111.52 -144 136 C-149.28 136 -154.56 136 -160 136 C-160 104.32 -160 72.64 -160 40 C-107.2 40 -54.4 40 0 40 C0 26.8 0 13.6 0 0 Z " fill="#251E20" transform="translate(928,1528)"/>
<path d="M0 0 C5.28 0 10.56 0 16 0 C16 71.28 16 142.56 16 216 C-15.68 216 -47.36 216 -80 216 C-80 208.08 -80 200.16 -80 192 C-53.6 192 -27.2 192 0 192 C0 128.64 0 65.28 0 0 Z " fill="#251E20" transform="translate(608,1536)"/>
<path d="M0 0 C52.8 0 105.6 0 160 0 C160 10.56 160 21.12 160 32 C107.2 32 54.4 32 0 32 C0 21.44 0 10.88 0 0 Z " fill="#FEFEFE" transform="translate(480,1376)"/>
<path d="M0 0 C15.84 0 31.68 0 48 0 C48 31.68 48 63.36 48 96 C32.16 96 16.32 96 0 96 C0 64.32 0 32.64 0 0 Z " fill="#D91831" transform="translate(1072,1568)"/>
<path d="M0 0 C21.12 0 42.24 0 64 0 C64 7.92 64 15.84 64 24 C48.16 24 32.32 24 16 24 C16 47.76 16 71.52 16 96 C10.72 96 5.44 96 0 96 C0 64.32 0 32.64 0 0 Z " fill="#241E20" transform="translate(1376,1568)"/>
<path d="M0 0 C18.48 0 36.96 0 56 0 C56 15.84 56 31.68 56 48 C37.52 48 19.04 48 0 48 C0 32.16 0 16.32 0 0 Z " fill="#B4B2B3" transform="translate(1312,968)"/>
<path d="M0 0 C18.48 0 36.96 0 56 0 C56 15.84 56 31.68 56 48 C37.52 48 19.04 48 0 48 C0 32.16 0 16.32 0 0 Z " fill="#B4B2B3" transform="translate(1184,968)"/>
<path d="M0 0 C18.48 0 36.96 0 56 0 C56 15.84 56 31.68 56 48 C37.52 48 19.04 48 0 48 C0 32.16 0 16.32 0 0 Z " fill="#B4B2B3" transform="translate(1056,968)"/>
<path d="M0 0 C18.48 0 36.96 0 56 0 C56 15.84 56 31.68 56 48 C37.52 48 19.04 48 0 48 C0 32.16 0 16.32 0 0 Z " fill="#B4B2B3" transform="translate(928,968)"/>
<path d="M0 0 C18.48 0 36.96 0 56 0 C56 15.84 56 31.68 56 48 C37.52 48 19.04 48 0 48 C0 32.16 0 16.32 0 0 Z " fill="#B4B2B3" transform="translate(800,968)"/>
<path d="M0 0 C18.48 0 36.96 0 56 0 C56 15.84 56 31.68 56 48 C37.52 48 19.04 48 0 48 C0 32.16 0 16.32 0 0 Z " fill="#B4B2B3" transform="translate(672,968)"/>
<path d="M0 0 C18.48 0 36.96 0 56 0 C56 15.84 56 31.68 56 48 C37.52 48 19.04 48 0 48 C0 32.16 0 16.32 0 0 Z " fill="#B4B2B3" transform="translate(1184,584)"/>
<path d="M0 0 C18.48 0 36.96 0 56 0 C56 15.84 56 31.68 56 48 C37.52 48 19.04 48 0 48 C0 32.16 0 16.32 0 0 Z " fill="#B4B2B3" transform="translate(1056,584)"/>
<path d="M0 0 C18.48 0 36.96 0 56 0 C56 15.84 56 31.68 56 48 C37.52 48 19.04 48 0 48 C0 32.16 0 16.32 0 0 Z " fill="#B4B2B3" transform="translate(928,584)"/>
<path d="M0 0 C18.48 0 36.96 0 56 0 C56 15.84 56 31.68 56 48 C37.52 48 19.04 48 0 48 C0 32.16 0 16.32 0 0 Z " fill="#B4B2B3" transform="translate(800,584)"/>
<path d="M0 0 C18.48 0 36.96 0 56 0 C56 15.84 56 31.68 56 48 C37.52 48 19.04 48 0 48 C0 32.16 0 16.32 0 0 Z " fill="#B4B2B3" transform="translate(1056,328)"/>
<path d="M0 0 C18.48 0 36.96 0 56 0 C56 15.84 56 31.68 56 48 C37.52 48 19.04 48 0 48 C0 32.16 0 16.32 0 0 Z " fill="#B4B2B3" transform="translate(928,328)"/>
<path d="M0 0 C15.84 0 31.68 0 48 0 C48 7.92 48 15.84 48 24 C37.44 24 26.88 24 16 24 C16 47.76 16 71.52 16 96 C10.72 96 5.44 96 0 96 C0 64.32 0 32.64 0 0 Z " fill="#241E20" transform="translate(1072,1568)"/>
<path d="M0 0 C10.56 0 21.12 0 32 0 C32 15.84 32 31.68 32 48 C21.44 48 10.88 48 0 48 C0 32.16 0 16.32 0 0 Z " fill="#B4B2B3" transform="translate(1440,968)"/>
<path d="M0 0 C10.56 0 21.12 0 32 0 C32 15.84 32 31.68 32 48 C21.44 48 10.88 48 0 48 C0 32.16 0 16.32 0 0 Z " fill="#B4B2B3" transform="translate(1312,584)"/>
<path d="M0 0 C10.56 0 21.12 0 32 0 C32 15.84 32 31.68 32 48 C21.44 48 10.88 48 0 48 C0 32.16 0 16.32 0 0 Z " fill="#B4B2B3" transform="translate(1184,328)"/>
<path d="M0 0 C18.48 0 36.96 0 56 0 C56 7.92 56 15.84 56 24 C37.52 24 19.04 24 0 24 C0 16.08 0 8.16 0 0 Z " fill="#B4B2B3" transform="translate(576,1344)"/>
<path d="M0 0 C18.48 0 36.96 0 56 0 C56 7.92 56 15.84 56 24 C37.52 24 19.04 24 0 24 C0 16.08 0 8.16 0 0 Z " fill="#B5B2B3" transform="translate(736,1312)"/>
<path d="M0 0 C18.48 0 36.96 0 56 0 C56 7.92 56 15.84 56 24 C37.52 24 19.04 24 0 24 C0 16.08 0 8.16 0 0 Z " fill="#B5B2B3" transform="translate(672,1312)"/>
<path d="M0 0 C18.48 0 36.96 0 56 0 C56 7.92 56 15.84 56 24 C37.52 24 19.04 24 0 24 C0 16.08 0 8.16 0 0 Z " fill="#B4B2B3" transform="translate(608,1312)"/>
<path d="M0 0 C18.48 0 36.96 0 56 0 C56 7.92 56 15.84 56 24 C37.52 24 19.04 24 0 24 C0 16.08 0 8.16 0 0 Z " fill="#B4B2B3" transform="translate(768,1280)"/>
<path d="M0 0 C18.48 0 36.96 0 56 0 C56 7.92 56 15.84 56 24 C37.52 24 19.04 24 0 24 C0 16.08 0 8.16 0 0 Z " fill="#B5B2B3" transform="translate(704,1280)"/>
<path d="M0 0 C18.48 0 36.96 0 56 0 C56 7.92 56 15.84 56 24 C37.52 24 19.04 24 0 24 C0 16.08 0 8.16 0 0 Z " fill="#B5B2B3" transform="translate(640,1280)"/>
<path d="M0 0 C18.48 0 36.96 0 56 0 C56 7.92 56 15.84 56 24 C37.52 24 19.04 24 0 24 C0 16.08 0 8.16 0 0 Z " fill="#B4B2B3" transform="translate(576,1280)"/>
<path d="M0 0 C18.48 0 36.96 0 56 0 C56 7.92 56 15.84 56 24 C37.52 24 19.04 24 0 24 C0 16.08 0 8.16 0 0 Z " fill="#B4B2B3" transform="translate(992,1248)"/>
<path d="M0 0 C18.48 0 36.96 0 56 0 C56 7.92 56 15.84 56 24 C37.52 24 19.04 24 0 24 C0 16.08 0 8.16 0 0 Z " fill="#B5B2B3" transform="translate(736,1248)"/>
<path d="M0 0 C18.48 0 36.96 0 56 0 C56 7.92 56 15.84 56 24 C37.52 24 19.04 24 0 24 C0 16.08 0 8.16 0 0 Z " fill="#B5B2B3" transform="translate(672,1248)"/>
<path d="M0 0 C18.48 0 36.96 0 56 0 C56 7.92 56 15.84 56 24 C37.52 24 19.04 24 0 24 C0 16.08 0 8.16 0 0 Z " fill="#B4B2B3" transform="translate(608,1248)"/>
<path d="M0 0 C18.48 0 36.96 0 56 0 C56 7.92 56 15.84 56 24 C37.52 24 19.04 24 0 24 C0 16.08 0 8.16 0 0 Z " fill="#B5B2B3" transform="translate(1024,1216)"/>
<path d="M0 0 C18.48 0 36.96 0 56 0 C56 7.92 56 15.84 56 24 C37.52 24 19.04 24 0 24 C0 16.08 0 8.16 0 0 Z " fill="#B4B2B3" transform="translate(960,1216)"/>
<path d="M0 0 C18.48 0 36.96 0 56 0 C56 7.92 56 15.84 56 24 C37.52 24 19.04 24 0 24 C0 16.08 0 8.16 0 0 Z " fill="#B4B2B3" transform="translate(768,1216)"/>
<path d="M0 0 C18.48 0 36.96 0 56 0 C56 7.92 56 15.84 56 24 C37.52 24 19.04 24 0 24 C0 16.08 0 8.16 0 0 Z " fill="#B5B2B3" transform="translate(704,1216)"/>
<path d="M0 0 C18.48 0 36.96 0 56 0 C56 7.92 56 15.84 56 24 C37.52 24 19.04 24 0 24 C0 16.08 0 8.16 0 0 Z " fill="#B5B2B3" transform="translate(640,1216)"/>
<path d="M0 0 C18.48 0 36.96 0 56 0 C56 7.92 56 15.84 56 24 C37.52 24 19.04 24 0 24 C0 16.08 0 8.16 0 0 Z " fill="#B4B2B3" transform="translate(576,1216)"/>
<path d="M0 0 C18.48 0 36.96 0 56 0 C56 7.92 56 15.84 56 24 C37.52 24 19.04 24 0 24 C0 16.08 0 8.16 0 0 Z " fill="#B5B2B3" transform="translate(1248,1184)"/>
<path d="M0 0 C18.48 0 36.96 0 56 0 C56 7.92 56 15.84 56 24 C37.52 24 19.04 24 0 24 C0 16.08 0 8.16 0 0 Z " fill="#B5B2B3" transform="translate(992,1184)"/>
<path d="M0 0 C18.48 0 36.96 0 56 0 C56 7.92 56 15.84 56 24 C37.52 24 19.04 24 0 24 C0 16.08 0 8.16 0 0 Z " fill="#B5B2B3" transform="translate(736,1184)"/>
<path d="M0 0 C18.48 0 36.96 0 56 0 C56 7.92 56 15.84 56 24 C37.52 24 19.04 24 0 24 C0 16.08 0 8.16 0 0 Z " fill="#B5B2B3" transform="translate(672,1184)"/>
<path d="M0 0 C18.48 0 36.96 0 56 0 C56 7.92 56 15.84 56 24 C37.52 24 19.04 24 0 24 C0 16.08 0 8.16 0 0 Z " fill="#B4B2B3" transform="translate(608,1184)"/>
<path d="M0 0 C18.48 0 36.96 0 56 0 C56 7.92 56 15.84 56 24 C37.52 24 19.04 24 0 24 C0 16.08 0 8.16 0 0 Z " fill="#B5B2B3" transform="translate(1344,1152)"/>
<path d="M0 0 C18.48 0 36.96 0 56 0 C56 7.92 56 15.84 56 24 C37.52 24 19.04 24 0 24 C0 16.08 0 8.16 0 0 Z " fill="#B5B2B3" transform="translate(1280,1152)"/>
<path d="M0 0 C18.48 0 36.96 0 56 0 C56 7.92 56 15.84 56 24 C37.52 24 19.04 24 0 24 C0 16.08 0 8.16 0 0 Z " fill="#B4B2B3" transform="translate(1216,1152)"/>
<path d="M0 0 C18.48 0 36.96 0 56 0 C56 7.92 56 15.84 56 24 C37.52 24 19.04 24 0 24 C0 16.08 0 8.16 0 0 Z " fill="#B5B2B3" transform="translate(1024,1152)"/>
<path d="M0 0 C18.48 0 36.96 0 56 0 C56 7.92 56 15.84 56 24 C37.52 24 19.04 24 0 24 C0 16.08 0 8.16 0 0 Z " fill="#B4B2B3" transform="translate(960,1152)"/>
<path d="M0 0 C18.48 0 36.96 0 56 0 C56 7.92 56 15.84 56 24 C37.52 24 19.04 24 0 24 C0 16.08 0 8.16 0 0 Z " fill="#B5B2B3" transform="translate(768,1152)"/>
<path d="M0 0 C18.48 0 36.96 0 56 0 C56 7.92 56 15.84 56 24 C37.52 24 19.04 24 0 24 C0 16.08 0 8.16 0 0 Z " fill="#B4B2B3" transform="translate(704,1152)"/>
<path d="M0 0 C18.48 0 36.96 0 56 0 C56 7.92 56 15.84 56 24 C37.52 24 19.04 24 0 24 C0 16.08 0 8.16 0 0 Z " fill="#B5B2B3" transform="translate(640,1152)"/>
<path d="M0 0 C18.48 0 36.96 0 56 0 C56 7.92 56 15.84 56 24 C37.52 24 19.04 24 0 24 C0 16.08 0 8.16 0 0 Z " fill="#B4B2B3" transform="translate(576,1152)"/>
<path d="M0 0 C18.48 0 36.96 0 56 0 C56 7.92 56 15.84 56 24 C37.52 24 19.04 24 0 24 C0 16.08 0 8.16 0 0 Z " fill="#B4B2B3" transform="translate(1376,1120)"/>
<path d="M0 0 C18.48 0 36.96 0 56 0 C56 7.92 56 15.84 56 24 C37.52 24 19.04 24 0 24 C0 16.08 0 8.16 0 0 Z " fill="#B5B2B3" transform="translate(1312,1120)"/>
<path d="M0 0 C18.48 0 36.96 0 56 0 C56 7.92 56 15.84 56 24 C37.52 24 19.04 24 0 24 C0 16.08 0 8.16 0 0 Z " fill="#B4B2B3" transform="translate(1248,1120)"/>
<path d="M0 0 C18.48 0 36.96 0 56 0 C56 7.92 56 15.84 56 24 C37.52 24 19.04 24 0 24 C0 16.08 0 8.16 0 0 Z " fill="#B4B2B3" transform="translate(992,1120)"/>
<path d="M0 0 C18.48 0 36.96 0 56 0 C56 7.92 56 15.84 56 24 C37.52 24 19.04 24 0 24 C0 16.08 0 8.16 0 0 Z " fill="#B4B2B3" transform="translate(736,1120)"/>
<path d="M0 0 C18.48 0 36.96 0 56 0 C56 7.92 56 15.84 56 24 C37.52 24 19.04 24 0 24 C0 16.08 0 8.16 0 0 Z " fill="#B5B2B3" transform="translate(672,1120)"/>
<path d="M0 0 C18.48 0 36.96 0 56 0 C56 7.92 56 15.84 56 24 C37.52 24 19.04 24 0 24 C0 16.08 0 8.16 0 0 Z " fill="#B4B2B3" transform="translate(608,1120)"/>
<path d="M0 0 C18.48 0 36.96 0 56 0 C56 7.92 56 15.84 56 24 C37.52 24 19.04 24 0 24 C0 16.08 0 8.16 0 0 Z " fill="#B5B2B3" transform="translate(1408,1088)"/>
<path d="M0 0 C18.48 0 36.96 0 56 0 C56 7.92 56 15.84 56 24 C37.52 24 19.04 24 0 24 C0 16.08 0 8.16 0 0 Z " fill="#B5B2B3" transform="translate(1344,1088)"/>
<path d="M0 0 C18.48 0 36.96 0 56 0 C56 7.92 56 15.84 56 24 C37.52 24 19.04 24 0 24 C0 16.08 0 8.16 0 0 Z " fill="#B5B2B3" transform="translate(1280,1088)"/>
<path d="M0 0 C18.48 0 36.96 0 56 0 C56 7.92 56 15.84 56 24 C37.52 24 19.04 24 0 24 C0 16.08 0 8.16 0 0 Z " fill="#B4B2B3" transform="translate(1216,1088)"/>
<path d="M0 0 C18.48 0 36.96 0 56 0 C56 7.92 56 15.84 56 24 C37.52 24 19.04 24 0 24 C0 16.08 0 8.16 0 0 Z " fill="#B4B2B3" transform="translate(1024,1088)"/>
<path d="M0 0 C18.48 0 36.96 0 56 0 C56 7.92 56 15.84 56 24 C37.52 24 19.04 24 0 24 C0 16.08 0 8.16 0 0 Z " fill="#B4B2B3" transform="translate(960,1088)"/>
<path d="M0 0 C18.48 0 36.96 0 56 0 C56 7.92 56 15.84 56 24 C37.52 24 19.04 24 0 24 C0 16.08 0 8.16 0 0 Z " fill="#B5B2B3" transform="translate(768,1088)"/>
<path d="M0 0 C18.48 0 36.96 0 56 0 C56 7.92 56 15.84 56 24 C37.52 24 19.04 24 0 24 C0 16.08 0 8.16 0 0 Z " fill="#B5B2B3" transform="translate(704,1088)"/>
<path d="M0 0 C18.48 0 36.96 0 56 0 C56 7.92 56 15.84 56 24 C37.52 24 19.04 24 0 24 C0 16.08 0 8.16 0 0 Z " fill="#B5B2B3" transform="translate(640,1088)"/>
<path d="M0 0 C18.48 0 36.96 0 56 0 C56 7.92 56 15.84 56 24 C37.52 24 19.04 24 0 24 C0 16.08 0 8.16 0 0 Z " fill="#B4B2B3" transform="translate(576,1088)"/>
<path d="M0 0 C18.48 0 36.96 0 56 0 C56 7.92 56 15.84 56 24 C37.52 24 19.04 24 0 24 C0 16.08 0 8.16 0 0 Z " fill="#B5B2B3" transform="translate(1376,1056)"/>
<path d="M0 0 C18.48 0 36.96 0 56 0 C56 7.92 56 15.84 56 24 C37.52 24 19.04 24 0 24 C0 16.08 0 8.16 0 0 Z " fill="#B5B2B3" transform="translate(1312,1056)"/>
<path d="M0 0 C18.48 0 36.96 0 56 0 C56 7.92 56 15.84 56 24 C37.52 24 19.04 24 0 24 C0 16.08 0 8.16 0 0 Z " fill="#B5B2B3" transform="translate(1248,1056)"/>
<path d="M0 0 C18.48 0 36.96 0 56 0 C56 7.92 56 15.84 56 24 C37.52 24 19.04 24 0 24 C0 16.08 0 8.16 0 0 Z " fill="#B5B2B3" transform="translate(1184,1056)"/>
<path d="M0 0 C18.48 0 36.96 0 56 0 C56 7.92 56 15.84 56 24 C37.52 24 19.04 24 0 24 C0 16.08 0 8.16 0 0 Z " fill="#B4B2B3" transform="translate(1120,1056)"/>
<path d="M0 0 C18.48 0 36.96 0 56 0 C56 7.92 56 15.84 56 24 C37.52 24 19.04 24 0 24 C0 16.08 0 8.16 0 0 Z " fill="#B4B2B3" transform="translate(1056,1056)"/>
<path d="M0 0 C18.48 0 36.96 0 56 0 C56 7.92 56 15.84 56 24 C37.52 24 19.04 24 0 24 C0 16.08 0 8.16 0 0 Z " fill="#B5B2B3" transform="translate(992,1056)"/>
<path d="M0 0 C18.48 0 36.96 0 56 0 C56 7.92 56 15.84 56 24 C37.52 24 19.04 24 0 24 C0 16.08 0 8.16 0 0 Z " fill="#B5B2B3" transform="translate(928,1056)"/>
<path d="M0 0 C18.48 0 36.96 0 56 0 C56 7.92 56 15.84 56 24 C37.52 24 19.04 24 0 24 C0 16.08 0 8.16 0 0 Z " fill="#B5B2B3" transform="translate(864,1056)"/>
<path d="M0 0 C18.48 0 36.96 0 56 0 C56 7.92 56 15.84 56 24 C37.52 24 19.04 24 0 24 C0 16.08 0 8.16 0 0 Z " fill="#B5B2B3" transform="translate(800,1056)"/>
<path d="M0 0 C18.48 0 36.96 0 56 0 C56 7.92 56 15.84 56 24 C37.52 24 19.04 24 0 24 C0 16.08 0 8.16 0 0 Z " fill="#B4B2B3" transform="translate(736,1056)"/>
<path d="M0 0 C18.48 0 36.96 0 56 0 C56 7.92 56 15.84 56 24 C37.52 24 19.04 24 0 24 C0 16.08 0 8.16 0 0 Z " fill="#B4B2B3" transform="translate(672,1056)"/>
<path d="M0 0 C18.48 0 36.96 0 56 0 C56 7.92 56 15.84 56 24 C37.52 24 19.04 24 0 24 C0 16.08 0 8.16 0 0 Z " fill="#B4B2B3" transform="translate(608,1056)"/>
<path d="M0 0 C18.48 0 36.96 0 56 0 C56 7.92 56 15.84 56 24 C37.52 24 19.04 24 0 24 C0 16.08 0 8.16 0 0 Z " fill="#B4B2B3" transform="translate(1408,1024)"/>
<path d="M0 0 C18.48 0 36.96 0 56 0 C56 7.92 56 15.84 56 24 C37.52 24 19.04 24 0 24 C0 16.08 0 8.16 0 0 Z " fill="#B5B2B3" transform="translate(1344,1024)"/>
<path d="M0 0 C18.48 0 36.96 0 56 0 C56 7.92 56 15.84 56 24 C37.52 24 19.04 24 0 24 C0 16.08 0 8.16 0 0 Z " fill="#B4B2B3" transform="translate(1280,1024)"/>
<path d="M0 0 C18.48 0 36.96 0 56 0 C56 7.92 56 15.84 56 24 C37.52 24 19.04 24 0 24 C0 16.08 0 8.16 0 0 Z " fill="#B4B2B3" transform="translate(1216,1024)"/>
<path d="M0 0 C18.48 0 36.96 0 56 0 C56 7.92 56 15.84 56 24 C37.52 24 19.04 24 0 24 C0 16.08 0 8.16 0 0 Z " fill="#B4B2B3" transform="translate(1152,1024)"/>
<path d="M0 0 C18.48 0 36.96 0 56 0 C56 7.92 56 15.84 56 24 C37.52 24 19.04 24 0 24 C0 16.08 0 8.16 0 0 Z " fill="#B5B2B3" transform="translate(1088,1024)"/>
<path d="M0 0 C18.48 0 36.96 0 56 0 C56 7.92 56 15.84 56 24 C37.52 24 19.04 24 0 24 C0 16.08 0 8.16 0 0 Z " fill="#B4B2B3" transform="translate(1024,1024)"/>
<path d="M0 0 C18.48 0 36.96 0 56 0 C56 7.92 56 15.84 56 24 C37.52 24 19.04 24 0 24 C0 16.08 0 8.16 0 0 Z " fill="#B5B2B3" transform="translate(960,1024)"/>
<path d="M0 0 C18.48 0 36.96 0 56 0 C56 7.92 56 15.84 56 24 C37.52 24 19.04 24 0 24 C0 16.08 0 8.16 0 0 Z " fill="#B4B2B3" transform="translate(896,1024)"/>
<path d="M0 0 C18.48 0 36.96 0 56 0 C56 7.92 56 15.84 56 24 C37.52 24 19.04 24 0 24 C0 16.08 0 8.16 0 0 Z " fill="#B5B2B3" transform="translate(832,1024)"/>
<path d="M0 0 C18.48 0 36.96 0 56 0 C56 7.92 56 15.84 56 24 C37.52 24 19.04 24 0 24 C0 16.08 0 8.16 0 0 Z " fill="#B5B2B3" transform="translate(768,1024)"/>
<path d="M0 0 C18.48 0 36.96 0 56 0 C56 7.92 56 15.84 56 24 C37.52 24 19.04 24 0 24 C0 16.08 0 8.16 0 0 Z " fill="#B4B2B3" transform="translate(704,1024)"/>
<path d="M0 0 C18.48 0 36.96 0 56 0 C56 7.92 56 15.84 56 24 C37.52 24 19.04 24 0 24 C0 16.08 0 8.16 0 0 Z " fill="#B4B2B3" transform="translate(640,1024)"/>
<path d="M0 0 C18.48 0 36.96 0 56 0 C56 7.92 56 15.84 56 24 C37.52 24 19.04 24 0 24 C0 16.08 0 8.16 0 0 Z " fill="#B4B2B3" transform="translate(576,1024)"/>
<path d="M0 0 C18.48 0 36.96 0 56 0 C56 7.92 56 15.84 56 24 C37.52 24 19.04 24 0 24 C0 16.08 0 8.16 0 0 Z " fill="#B4B2B3" transform="translate(1248,992)"/>
<path d="M0 0 C18.48 0 36.96 0 56 0 C56 7.92 56 15.84 56 24 C37.52 24 19.04 24 0 24 C0 16.08 0 8.16 0 0 Z " fill="#B4B2B3" transform="translate(1120,992)"/>
<path d="M0 0 C18.48 0 36.96 0 56 0 C56 7.92 56 15.84 56 24 C37.52 24 19.04 24 0 24 C0 16.08 0 8.16 0 0 Z " fill="#B4B2B3" transform="translate(992,992)"/>
<path d="M0 0 C18.48 0 36.96 0 56 0 C56 7.92 56 15.84 56 24 C37.52 24 19.04 24 0 24 C0 16.08 0 8.16 0 0 Z " fill="#B4B2B3" transform="translate(864,992)"/>
<path d="M0 0 C18.48 0 36.96 0 56 0 C56 7.92 56 15.84 56 24 C37.52 24 19.04 24 0 24 C0 16.08 0 8.16 0 0 Z " fill="#B4B2B3" transform="translate(736,992)"/>
<path d="M0 0 C18.48 0 36.96 0 56 0 C56 7.92 56 15.84 56 24 C37.52 24 19.04 24 0 24 C0 16.08 0 8.16 0 0 Z " fill="#B5B2B3" transform="translate(1248,928)"/>
<path d="M0 0 C18.48 0 36.96 0 56 0 C56 7.92 56 15.84 56 24 C37.52 24 19.04 24 0 24 C0 16.08 0 8.16 0 0 Z " fill="#B5B2B3" transform="translate(1184,928)"/>
<path d="M0 0 C18.48 0 36.96 0 56 0 C56 7.92 56 15.84 56 24 C37.52 24 19.04 24 0 24 C0 16.08 0 8.16 0 0 Z " fill="#B4B2B3" transform="translate(1120,928)"/>
<path d="M0 0 C18.48 0 36.96 0 56 0 C56 7.92 56 15.84 56 24 C37.52 24 19.04 24 0 24 C0 16.08 0 8.16 0 0 Z " fill="#B5B2B3" transform="translate(864,928)"/>
<path d="M0 0 C18.48 0 36.96 0 56 0 C56 7.92 56 15.84 56 24 C37.52 24 19.04 24 0 24 C0 16.08 0 8.16 0 0 Z " fill="#B5B2B3" transform="translate(800,928)"/>
<path d="M0 0 C18.48 0 36.96 0 56 0 C56 7.92 56 15.84 56 24 C37.52 24 19.04 24 0 24 C0 16.08 0 8.16 0 0 Z " fill="#B4B2B3" transform="translate(736,928)"/>
<path d="M0 0 C18.48 0 36.96 0 56 0 C56 7.92 56 15.84 56 24 C37.52 24 19.04 24 0 24 C0 16.08 0 8.16 0 0 Z " fill="#B4B2B3" transform="translate(1280,896)"/>
<path d="M0 0 C18.48 0 36.96 0 56 0 C56 7.92 56 15.84 56 24 C37.52 24 19.04 24 0 24 C0 16.08 0 8.16 0 0 Z " fill="#B4B2B3" transform="translate(1216,896)"/>
<path d="M0 0 C18.48 0 36.96 0 56 0 C56 7.92 56 15.84 56 24 C37.52 24 19.04 24 0 24 C0 16.08 0 8.16 0 0 Z " fill="#B5B2B3" transform="translate(1152,896)"/>
<path d="M0 0 C18.48 0 36.96 0 56 0 C56 7.92 56 15.84 56 24 C37.52 24 19.04 24 0 24 C0 16.08 0 8.16 0 0 Z " fill="#B4B2B3" transform="translate(1088,896)"/>
<path d="M0 0 C18.48 0 36.96 0 56 0 C56 7.92 56 15.84 56 24 C37.52 24 19.04 24 0 24 C0 16.08 0 8.16 0 0 Z " fill="#B5B2B3" transform="translate(896,896)"/>
<path d="M0 0 C18.48 0 36.96 0 56 0 C56 7.92 56 15.84 56 24 C37.52 24 19.04 24 0 24 C0 16.08 0 8.16 0 0 Z " fill="#B5B2B3" transform="translate(832,896)"/>
<path d="M0 0 C18.48 0 36.96 0 56 0 C56 7.92 56 15.84 56 24 C37.52 24 19.04 24 0 24 C0 16.08 0 8.16 0 0 Z " fill="#B5B2B3" transform="translate(768,896)"/>
<path d="M0 0 C18.48 0 36.96 0 56 0 C56 7.92 56 15.84 56 24 C37.52 24 19.04 24 0 24 C0 16.08 0 8.16 0 0 Z " fill="#B4B2B3" transform="translate(704,896)"/>
<path d="M0 0 C18.48 0 36.96 0 56 0 C56 7.92 56 15.84 56 24 C37.52 24 19.04 24 0 24 C0 16.08 0 8.16 0 0 Z " fill="#B4B2B3" transform="translate(1248,864)"/>
<path d="M0 0 C18.48 0 36.96 0 56 0 C56 7.92 56 15.84 56 24 C37.52 24 19.04 24 0 24 C0 16.08 0 8.16 0 0 Z " fill="#B5B2B3" transform="translate(1184,864)"/>
<path d="M0 0 C18.48 0 36.96 0 56 0 C56 7.92 56 15.84 56 24 C37.52 24 19.04 24 0 24 C0 16.08 0 8.16 0 0 Z " fill="#B4B2B3" transform="translate(1120,864)"/>
<path d="M0 0 C18.48 0 36.96 0 56 0 C56 7.92 56 15.84 56 24 C37.52 24 19.04 24 0 24 C0 16.08 0 8.16 0 0 Z " fill="#B5B2B3" transform="translate(864,864)"/>
<path d="M0 0 C18.48 0 36.96 0 56 0 C56 7.92 56 15.84 56 24 C37.52 24 19.04 24 0 24 C0 16.08 0 8.16 0 0 Z " fill="#B5B2B3" transform="translate(800,864)"/>
<path d="M0 0 C18.48 0 36.96 0 56 0 C56 7.92 56 15.84 56 24 C37.52 24 19.04 24 0 24 C0 16.08 0 8.16 0 0 Z " fill="#B4B2B3" transform="translate(736,864)"/>
<path d="M0 0 C18.48 0 36.96 0 56 0 C56 7.92 56 15.84 56 24 C37.52 24 19.04 24 0 24 C0 16.08 0 8.16 0 0 Z " fill="#B5B2B3" transform="translate(1280,832)"/>
<path d="M0 0 C18.48 0 36.96 0 56 0 C56 7.92 56 15.84 56 24 C37.52 24 19.04 24 0 24 C0 16.08 0 8.16 0 0 Z " fill="#B5B2B3" transform="translate(1216,832)"/>
<path d="M0 0 C18.48 0 36.96 0 56 0 C56 7.92 56 15.84 56 24 C37.52 24 19.04 24 0 24 C0 16.08 0 8.16 0 0 Z " fill="#B5B2B3" transform="translate(1152,832)"/>
<path d="M0 0 C18.48 0 36.96 0 56 0 C56 7.92 56 15.84 56 24 C37.52 24 19.04 24 0 24 C0 16.08 0 8.16 0 0 Z " fill="#B4B2B3" transform="translate(1088,832)"/>
<path d="M0 0 C18.48 0 36.96 0 56 0 C56 7.92 56 15.84 56 24 C37.52 24 19.04 24 0 24 C0 16.08 0 8.16 0 0 Z " fill="#B5B2B3" transform="translate(896,832)"/>
<path d="M0 0 C18.48 0 36.96 0 56 0 C56 7.92 56 15.84 56 24 C37.52 24 19.04 24 0 24 C0 16.08 0 8.16 0 0 Z " fill="#B5B2B3" transform="translate(832,832)"/>
<path d="M0 0 C18.48 0 36.96 0 56 0 C56 7.92 56 15.84 56 24 C37.52 24 19.04 24 0 24 C0 16.08 0 8.16 0 0 Z " fill="#B5B2B3" transform="translate(768,832)"/>
<path d="M0 0 C18.48 0 36.96 0 56 0 C56 7.92 56 15.84 56 24 C37.52 24 19.04 24 0 24 C0 16.08 0 8.16 0 0 Z " fill="#B4B2B3" transform="translate(704,832)"/>
<path d="M0 0 C18.48 0 36.96 0 56 0 C56 7.92 56 15.84 56 24 C37.52 24 19.04 24 0 24 C0 16.08 0 8.16 0 0 Z " fill="#B5B2B3" transform="translate(1248,800)"/>
<path d="M0 0 C18.48 0 36.96 0 56 0 C56 7.92 56 15.84 56 24 C37.52 24 19.04 24 0 24 C0 16.08 0 8.16 0 0 Z " fill="#B4B2B3" transform="translate(1184,800)"/>
<path d="M0 0 C18.48 0 36.96 0 56 0 C56 7.92 56 15.84 56 24 C37.52 24 19.04 24 0 24 C0 16.08 0 8.16 0 0 Z " fill="#B4B2B3" transform="translate(1120,800)"/>
<path d="M0 0 C18.48 0 36.96 0 56 0 C56 7.92 56 15.84 56 24 C37.52 24 19.04 24 0 24 C0 16.08 0 8.16 0 0 Z " fill="#B5B2B3" transform="translate(864,800)"/>
<path d="M0 0 C18.48 0 36.96 0 56 0 C56 7.92 56 15.84 56 24 C37.52 24 19.04 24 0 24 C0 16.08 0 8.16 0 0 Z " fill="#B5B2B3" transform="translate(800,800)"/>
<path d="M0 0 C18.48 0 36.96 0 56 0 C56 7.92 56 15.84 56 24 C37.52 24 19.04 24 0 24 C0 16.08 0 8.16 0 0 Z " fill="#B4B2B3" transform="translate(736,800)"/>
<path d="M0 0 C18.48 0 36.96 0 56 0 C56 7.92 56 15.84 56 24 C37.52 24 19.04 24 0 24 C0 16.08 0 8.16 0 0 Z " fill="#B4B2B3" transform="translate(1280,768)"/>
<path d="M0 0 C18.48 0 36.96 0 56 0 C56 7.92 56 15.84 56 24 C37.52 24 19.04 24 0 24 C0 16.08 0 8.16 0 0 Z " fill="#B4B2B3" transform="translate(1216,768)"/>
<path d="M0 0 C18.48 0 36.96 0 56 0 C56 7.92 56 15.84 56 24 C37.52 24 19.04 24 0 24 C0 16.08 0 8.16 0 0 Z " fill="#B5B2B3" transform="translate(1152,768)"/>
<path d="M0 0 C18.48 0 36.96 0 56 0 C56 7.92 56 15.84 56 24 C37.52 24 19.04 24 0 24 C0 16.08 0 8.16 0 0 Z " fill="#B4B2B3" transform="translate(1088,768)"/>
<path d="M0 0 C18.48 0 36.96 0 56 0 C56 7.92 56 15.84 56 24 C37.52 24 19.04 24 0 24 C0 16.08 0 8.16 0 0 Z " fill="#B4B2B3" transform="translate(896,768)"/>
<path d="M0 0 C18.48 0 36.96 0 56 0 C56 7.92 56 15.84 56 24 C37.52 24 19.04 24 0 24 C0 16.08 0 8.16 0 0 Z " fill="#B5B2B3" transform="translate(832,768)"/>
<path d="M0 0 C18.48 0 36.96 0 56 0 C56 7.92 56 15.84 56 24 C37.52 24 19.04 24 0 24 C0 16.08 0 8.16 0 0 Z " fill="#B5B2B3" transform="translate(768,768)"/>
<path d="M0 0 C18.48 0 36.96 0 56 0 C56 7.92 56 15.84 56 24 C37.52 24 19.04 24 0 24 C0 16.08 0 8.16 0 0 Z " fill="#B4B2B3" transform="translate(704,768)"/>
<path d="M0 0 C18.48 0 36.96 0 56 0 C56 7.92 56 15.84 56 24 C37.52 24 19.04 24 0 24 C0 16.08 0 8.16 0 0 Z " fill="#B5B2B3" transform="translate(1248,736)"/>
<path d="M0 0 C18.48 0 36.96 0 56 0 C56 7.92 56 15.84 56 24 C37.52 24 19.04 24 0 24 C0 16.08 0 8.16 0 0 Z " fill="#B5B2B3" transform="translate(1184,736)"/>
<path d="M0 0 C18.48 0 36.96 0 56 0 C56 7.92 56 15.84 56 24 C37.52 24 19.04 24 0 24 C0 16.08 0 8.16 0 0 Z " fill="#B4B2B3" transform="translate(1120,736)"/>
<path d="M0 0 C18.48 0 36.96 0 56 0 C56 7.92 56 15.84 56 24 C37.52 24 19.04 24 0 24 C0 16.08 0 8.16 0 0 Z " fill="#B5B2B3" transform="translate(864,736)"/>
<path d="M0 0 C18.48 0 36.96 0 56 0 C56 7.92 56 15.84 56 24 C37.52 24 19.04 24 0 24 C0 16.08 0 8.16 0 0 Z " fill="#B5B2B3" transform="translate(800,736)"/>
<path d="M0 0 C18.48 0 36.96 0 56 0 C56 7.92 56 15.84 56 24 C37.52 24 19.04 24 0 24 C0 16.08 0 8.16 0 0 Z " fill="#B4B2B3" transform="translate(736,736)"/>
<path d="M0 0 C18.48 0 36.96 0 56 0 C56 7.92 56 15.84 56 24 C37.52 24 19.04 24 0 24 C0 16.08 0 8.16 0 0 Z " fill="#B5B2B3" transform="translate(1280,704)"/>
<path d="M0 0 C18.48 0 36.96 0 56 0 C56 7.92 56 15.84 56 24 C37.52 24 19.04 24 0 24 C0 16.08 0 8.16 0 0 Z " fill="#B5B2B3" transform="translate(1216,704)"/>
<path d="M0 0 C18.48 0 36.96 0 56 0 C56 7.92 56 15.84 56 24 C37.52 24 19.04 24 0 24 C0 16.08 0 8.16 0 0 Z " fill="#B5B2B3" transform="translate(1152,704)"/>
<path d="M0 0 C18.48 0 36.96 0 56 0 C56 7.92 56 15.84 56 24 C37.52 24 19.04 24 0 24 C0 16.08 0 8.16 0 0 Z " fill="#B4B2B3" transform="translate(1088,704)"/>
<path d="M0 0 C18.48 0 36.96 0 56 0 C56 7.92 56 15.84 56 24 C37.52 24 19.04 24 0 24 C0 16.08 0 8.16 0 0 Z " fill="#B4B2B3" transform="translate(896,704)"/>
<path d="M0 0 C18.48 0 36.96 0 56 0 C56 7.92 56 15.84 56 24 C37.52 24 19.04 24 0 24 C0 16.08 0 8.16 0 0 Z " fill="#B5B2B3" transform="translate(832,704)"/>
<path d="M0 0 C18.48 0 36.96 0 56 0 C56 7.92 56 15.84 56 24 C37.52 24 19.04 24 0 24 C0 16.08 0 8.16 0 0 Z " fill="#B5B2B3" transform="translate(768,704)"/>
<path d="M0 0 C18.48 0 36.96 0 56 0 C56 7.92 56 15.84 56 24 C37.52 24 19.04 24 0 24 C0 16.08 0 8.16 0 0 Z " fill="#B4B2B3" transform="translate(704,704)"/>
<path d="M0 0 C18.48 0 36.96 0 56 0 C56 7.92 56 15.84 56 24 C37.52 24 19.04 24 0 24 C0 16.08 0 8.16 0 0 Z " fill="#B5B2B3" transform="translate(1248,672)"/>
<path d="M0 0 C18.48 0 36.96 0 56 0 C56 7.92 56 15.84 56 24 C37.52 24 19.04 24 0 24 C0 16.08 0 8.16 0 0 Z " fill="#B5B2B3" transform="translate(1184,672)"/>
<path d="M0 0 C18.48 0 36.96 0 56 0 C56 7.92 56 15.84 56 24 C37.52 24 19.04 24 0 24 C0 16.08 0 8.16 0 0 Z " fill="#B5B2B3" transform="translate(1120,672)"/>
<path d="M0 0 C18.48 0 36.96 0 56 0 C56 7.92 56 15.84 56 24 C37.52 24 19.04 24 0 24 C0 16.08 0 8.16 0 0 Z " fill="#B5B2B3" transform="translate(1056,672)"/>
<path d="M0 0 C18.48 0 36.96 0 56 0 C56 7.92 56 15.84 56 24 C37.52 24 19.04 24 0 24 C0 16.08 0 8.16 0 0 Z " fill="#B5B2B3" transform="translate(992,672)"/>
<path d="M0 0 C18.48 0 36.96 0 56 0 C56 7.92 56 15.84 56 24 C37.52 24 19.04 24 0 24 C0 16.08 0 8.16 0 0 Z " fill="#B4B2B3" transform="translate(928,672)"/>
<path d="M0 0 C18.48 0 36.96 0 56 0 C56 7.92 56 15.84 56 24 C37.52 24 19.04 24 0 24 C0 16.08 0 8.16 0 0 Z " fill="#B4B2B3" transform="translate(864,672)"/>
<path d="M0 0 C18.48 0 36.96 0 56 0 C56 7.92 56 15.84 56 24 C37.52 24 19.04 24 0 24 C0 16.08 0 8.16 0 0 Z " fill="#B4B2B3" transform="translate(800,672)"/>
<path d="M0 0 C18.48 0 36.96 0 56 0 C56 7.92 56 15.84 56 24 C37.52 24 19.04 24 0 24 C0 16.08 0 8.16 0 0 Z " fill="#B5B2B3" transform="translate(736,672)"/>
<path d="M0 0 C18.48 0 36.96 0 56 0 C56 7.92 56 15.84 56 24 C37.52 24 19.04 24 0 24 C0 16.08 0 8.16 0 0 Z " fill="#B5B2B3" transform="translate(1280,640)"/>
<path d="M0 0 C18.48 0 36.96 0 56 0 C56 7.92 56 15.84 56 24 C37.52 24 19.04 24 0 24 C0 16.08 0 8.16 0 0 Z " fill="#B5B2B3" transform="translate(1216,640)"/>
<path d="M0 0 C18.48 0 36.96 0 56 0 C56 7.92 56 15.84 56 24 C37.52 24 19.04 24 0 24 C0 16.08 0 8.16 0 0 Z " fill="#B4B2B3" transform="translate(1152,640)"/>
<path d="M0 0 C18.48 0 36.96 0 56 0 C56 7.92 56 15.84 56 24 C37.52 24 19.04 24 0 24 C0 16.08 0 8.16 0 0 Z " fill="#B5B2B3" transform="translate(1088,640)"/>
<path d="M0 0 C18.48 0 36.96 0 56 0 C56 7.92 56 15.84 56 24 C37.52 24 19.04 24 0 24 C0 16.08 0 8.16 0 0 Z " fill="#B5B2B3" transform="translate(1024,640)"/>
<path d="M0 0 C18.48 0 36.96 0 56 0 C56 7.92 56 15.84 56 24 C37.52 24 19.04 24 0 24 C0 16.08 0 8.16 0 0 Z " fill="#B5B2B3" transform="translate(960,640)"/>
<path d="M0 0 C18.48 0 36.96 0 56 0 C56 7.92 56 15.84 56 24 C37.52 24 19.04 24 0 24 C0 16.08 0 8.16 0 0 Z " fill="#B5B2B3" transform="translate(896,640)"/>
<path d="M0 0 C18.48 0 36.96 0 56 0 C56 7.92 56 15.84 56 24 C37.52 24 19.04 24 0 24 C0 16.08 0 8.16 0 0 Z " fill="#B4B2B3" transform="translate(832,640)"/>
<path d="M0 0 C18.48 0 36.96 0 56 0 C56 7.92 56 15.84 56 24 C37.52 24 19.04 24 0 24 C0 16.08 0 8.16 0 0 Z " fill="#B4B2B3" transform="translate(768,640)"/>
<path d="M0 0 C18.48 0 36.96 0 56 0 C56 7.92 56 15.84 56 24 C37.52 24 19.04 24 0 24 C0 16.08 0 8.16 0 0 Z " fill="#B4B2B3" transform="translate(704,640)"/>
<path d="M0 0 C18.48 0 36.96 0 56 0 C56 7.92 56 15.84 56 24 C37.52 24 19.04 24 0 24 C0 16.08 0 8.16 0 0 Z " fill="#B4B2B3" transform="translate(1120,608)"/>
<path d="M0 0 C18.48 0 36.96 0 56 0 C56 7.92 56 15.84 56 24 C37.52 24 19.04 24 0 24 C0 16.08 0 8.16 0 0 Z " fill="#B4B2B3" transform="translate(992,608)"/>
<path d="M0 0 C18.48 0 36.96 0 56 0 C56 7.92 56 15.84 56 24 C37.52 24 19.04 24 0 24 C0 16.08 0 8.16 0 0 Z " fill="#B4B2B3" transform="translate(864,608)"/>
<path d="M0 0 C18.48 0 36.96 0 56 0 C56 7.92 56 15.84 56 24 C37.52 24 19.04 24 0 24 C0 16.08 0 8.16 0 0 Z " fill="#B5B2B3" transform="translate(992,544)"/>
<path d="M0 0 C18.48 0 36.96 0 56 0 C56 7.92 56 15.84 56 24 C37.52 24 19.04 24 0 24 C0 16.08 0 8.16 0 0 Z " fill="#B5B2B3" transform="translate(1152,512)"/>
<path d="M0 0 C18.48 0 36.96 0 56 0 C56 7.92 56 15.84 56 24 C37.52 24 19.04 24 0 24 C0 16.08 0 8.16 0 0 Z " fill="#B5B2B3" transform="translate(1024,512)"/>
<path d="M0 0 C18.48 0 36.96 0 56 0 C56 7.92 56 15.84 56 24 C37.52 24 19.04 24 0 24 C0 16.08 0 8.16 0 0 Z " fill="#B5B2B3" transform="translate(960,512)"/>
<path d="M0 0 C18.48 0 36.96 0 56 0 C56 7.92 56 15.84 56 24 C37.52 24 19.04 24 0 24 C0 16.08 0 8.16 0 0 Z " fill="#B4B2B3" transform="translate(832,512)"/>
<path d="M0 0 C18.48 0 36.96 0 56 0 C56 7.92 56 15.84 56 24 C37.52 24 19.04 24 0 24 C0 16.08 0 8.16 0 0 Z " fill="#B5B2B3" transform="translate(992,480)"/>
<path d="M0 0 C18.48 0 36.96 0 56 0 C56 7.92 56 15.84 56 24 C37.52 24 19.04 24 0 24 C0 16.08 0 8.16 0 0 Z " fill="#B5B2B3" transform="translate(1152,448)"/>
<path d="M0 0 C18.48 0 36.96 0 56 0 C56 7.92 56 15.84 56 24 C37.52 24 19.04 24 0 24 C0 16.08 0 8.16 0 0 Z " fill="#B5B2B3" transform="translate(1024,448)"/>
<path d="M0 0 C18.48 0 36.96 0 56 0 C56 7.92 56 15.84 56 24 C37.52 24 19.04 24 0 24 C0 16.08 0 8.16 0 0 Z " fill="#B5B2B3" transform="translate(960,448)"/>
<path d="M0 0 C18.48 0 36.96 0 56 0 C56 7.92 56 15.84 56 24 C37.52 24 19.04 24 0 24 C0 16.08 0 8.16 0 0 Z " fill="#B4B2B3" transform="translate(832,448)"/>
<path d="M0 0 C18.48 0 36.96 0 56 0 C56 7.92 56 15.84 56 24 C37.52 24 19.04 24 0 24 C0 16.08 0 8.16 0 0 Z " fill="#B5B2B3" transform="translate(1120,416)"/>
<path d="M0 0 C18.48 0 36.96 0 56 0 C56 7.92 56 15.84 56 24 C37.52 24 19.04 24 0 24 C0 16.08 0 8.16 0 0 Z " fill="#B5B2B3" transform="translate(1056,416)"/>
<path d="M0 0 C18.48 0 36.96 0 56 0 C56 7.92 56 15.84 56 24 C37.52 24 19.04 24 0 24 C0 16.08 0 8.16 0 0 Z " fill="#B5B2B3" transform="translate(992,416)"/>
<path d="M0 0 C18.48 0 36.96 0 56 0 C56 7.92 56 15.84 56 24 C37.52 24 19.04 24 0 24 C0 16.08 0 8.16 0 0 Z " fill="#B5B2B3" transform="translate(928,416)"/>
<path d="M0 0 C18.48 0 36.96 0 56 0 C56 7.92 56 15.84 56 24 C37.52 24 19.04 24 0 24 C0 16.08 0 8.16 0 0 Z " fill="#B5B2B3" transform="translate(864,416)"/>
<path d="M0 0 C18.48 0 36.96 0 56 0 C56 7.92 56 15.84 56 24 C37.52 24 19.04 24 0 24 C0 16.08 0 8.16 0 0 Z " fill="#B5B2B3" transform="translate(1152,384)"/>
<path d="M0 0 C18.48 0 36.96 0 56 0 C56 7.92 56 15.84 56 24 C37.52 24 19.04 24 0 24 C0 16.08 0 8.16 0 0 Z " fill="#B5B2B3" transform="translate(1088,384)"/>
<path d="M0 0 C18.48 0 36.96 0 56 0 C56 7.92 56 15.84 56 24 C37.52 24 19.04 24 0 24 C0 16.08 0 8.16 0 0 Z " fill="#B5B2B3" transform="translate(1024,384)"/>
<path d="M0 0 C18.48 0 36.96 0 56 0 C56 7.92 56 15.84 56 24 C37.52 24 19.04 24 0 24 C0 16.08 0 8.16 0 0 Z " fill="#B5B2B3" transform="translate(960,384)"/>
<path d="M0 0 C18.48 0 36.96 0 56 0 C56 7.92 56 15.84 56 24 C37.52 24 19.04 24 0 24 C0 16.08 0 8.16 0 0 Z " fill="#B5B2B3" transform="translate(896,384)"/>
<path d="M0 0 C18.48 0 36.96 0 56 0 C56 7.92 56 15.84 56 24 C37.52 24 19.04 24 0 24 C0 16.08 0 8.16 0 0 Z " fill="#B4B2B3" transform="translate(832,384)"/>
<path d="M0 0 C7.92 0 15.84 0 24 0 C24 15.84 24 31.68 24 48 C16.08 48 8.16 48 0 48 C0 32.16 0 16.32 0 0 Z " fill="#B4B2B3" transform="translate(576,968)"/>
<path d="M0 0 C7.92 0 15.84 0 24 0 C24 15.84 24 31.68 24 48 C16.08 48 8.16 48 0 48 C0 32.16 0 16.32 0 0 Z " fill="#B4B2B3" transform="translate(704,584)"/>
<path d="M0 0 C7.92 0 15.84 0 24 0 C24 15.84 24 31.68 24 48 C16.08 48 8.16 48 0 48 C0 32.16 0 16.32 0 0 Z " fill="#B4B2B3" transform="translate(832,328)"/>
<path d="M0 0 C13.2 0 26.4 0 40 0 C40 5.28 40 10.56 40 16 C37.36 16 34.72 16 32 16 C32 18.64 32 21.28 32 24 C21.44 24 10.88 24 0 24 C0 16.08 0 8.16 0 0 Z " fill="#B5B2B3" transform="translate(1056,1120)"/>
<path d="M0 0 C13.2 0 26.4 0 40 0 C40 5.28 40 10.56 40 16 C37.36 16 34.72 16 32 16 C32 18.64 32 21.28 32 24 C21.44 24 10.88 24 0 24 C0 16.08 0 8.16 0 0 Z " fill="#B5B2B3" transform="translate(800,1120)"/>
<path d="M0 0 C13.2 0 26.4 0 40 0 C40 5.28 40 10.56 40 16 C37.36 16 34.72 16 32 16 C32 18.64 32 21.28 32 24 C21.44 24 10.88 24 0 24 C0 16.08 0 8.16 0 0 Z " fill="#B4B2B3" transform="translate(928,736)"/>
<path d="M0 0 C10.56 0 21.12 0 32 0 C32 7.92 32 15.84 32 24 C21.44 24 10.88 24 0 24 C0 16.08 0 8.16 0 0 Z " fill="#B5B2B3" transform="translate(800,1312)"/>
<path d="M0 0 C10.56 0 21.12 0 32 0 C32 7.92 32 15.84 32 24 C21.44 24 10.88 24 0 24 C0 16.08 0 8.16 0 0 Z " fill="#B5B2B3" transform="translate(1056,1248)"/>
<path d="M0 0 C10.56 0 21.12 0 32 0 C32 7.92 32 15.84 32 24 C21.44 24 10.88 24 0 24 C0 16.08 0 8.16 0 0 Z " fill="#B5B2B3" transform="translate(800,1248)"/>
<path d="M0 0 C10.56 0 21.12 0 32 0 C32 7.92 32 15.84 32 24 C21.44 24 10.88 24 0 24 C0 16.08 0 8.16 0 0 Z " fill="#B5B2B3" transform="translate(1056,1184)"/>
<path d="M0 0 C10.56 0 21.12 0 32 0 C32 7.92 32 15.84 32 24 C21.44 24 10.88 24 0 24 C0 16.08 0 8.16 0 0 Z " fill="#B5B2B3" transform="translate(800,1184)"/>
<path d="M0 0 C10.56 0 21.12 0 32 0 C32 7.92 32 15.84 32 24 C21.44 24 10.88 24 0 24 C0 16.08 0 8.16 0 0 Z " fill="#B5B2B3" transform="translate(1440,1120)"/>
<path d="M0 0 C10.56 0 21.12 0 32 0 C32 7.92 32 15.84 32 24 C21.44 24 10.88 24 0 24 C0 16.08 0 8.16 0 0 Z " fill="#B5B2B3" transform="translate(1440,1056)"/>
<path d="M0 0 C10.56 0 21.12 0 32 0 C32 7.92 32 15.84 32 24 C21.44 24 10.88 24 0 24 C0 16.08 0 8.16 0 0 Z " fill="#B5B2B3" transform="translate(1312,928)"/>
<path d="M0 0 C10.56 0 21.12 0 32 0 C32 7.92 32 15.84 32 24 C21.44 24 10.88 24 0 24 C0 16.08 0 8.16 0 0 Z " fill="#B5B2B3" transform="translate(928,928)"/>
<path d="M0 0 C10.56 0 21.12 0 32 0 C32 7.92 32 15.84 32 24 C21.44 24 10.88 24 0 24 C0 16.08 0 8.16 0 0 Z " fill="#B5B2B3" transform="translate(1312,864)"/>
<path d="M0 0 C10.56 0 21.12 0 32 0 C32 7.92 32 15.84 32 24 C21.44 24 10.88 24 0 24 C0 16.08 0 8.16 0 0 Z " fill="#B5B2B3" transform="translate(928,864)"/>
<path d="M0 0 C10.56 0 21.12 0 32 0 C32 7.92 32 15.84 32 24 C21.44 24 10.88 24 0 24 C0 16.08 0 8.16 0 0 Z " fill="#B5B2B3" transform="translate(1312,800)"/>
<path d="M0 0 C10.56 0 21.12 0 32 0 C32 7.92 32 15.84 32 24 C21.44 24 10.88 24 0 24 C0 16.08 0 8.16 0 0 Z " fill="#B5B2B3" transform="translate(928,800)"/>
<path d="M0 0 C10.56 0 21.12 0 32 0 C32 7.92 32 15.84 32 24 C21.44 24 10.88 24 0 24 C0 16.08 0 8.16 0 0 Z " fill="#B5B2B3" transform="translate(1312,736)"/>
<path d="M0 0 C10.56 0 21.12 0 32 0 C32 7.92 32 15.84 32 24 C21.44 24 10.88 24 0 24 C0 16.08 0 8.16 0 0 Z " fill="#B5B2B3" transform="translate(1312,672)"/>
<path d="M0 0 C10.56 0 21.12 0 32 0 C32 7.92 32 15.84 32 24 C21.44 24 10.88 24 0 24 C0 16.08 0 8.16 0 0 Z " fill="#B4B2B3" transform="translate(1184,544)"/>
<path d="M0 0 C10.56 0 21.12 0 32 0 C32 7.92 32 15.84 32 24 C21.44 24 10.88 24 0 24 C0 16.08 0 8.16 0 0 Z " fill="#B5B2B3" transform="translate(1056,544)"/>
<path d="M0 0 C10.56 0 21.12 0 32 0 C32 7.92 32 15.84 32 24 C21.44 24 10.88 24 0 24 C0 16.08 0 8.16 0 0 Z " fill="#B4B2B3" transform="translate(864,544)"/>
<path d="M0 0 C10.56 0 21.12 0 32 0 C32 7.92 32 15.84 32 24 C21.44 24 10.88 24 0 24 C0 16.08 0 8.16 0 0 Z " fill="#B5B2B3" transform="translate(1184,480)"/>
<path d="M0 0 C10.56 0 21.12 0 32 0 C32 7.92 32 15.84 32 24 C21.44 24 10.88 24 0 24 C0 16.08 0 8.16 0 0 Z " fill="#B5B2B3" transform="translate(1056,480)"/>
<path d="M0 0 C10.56 0 21.12 0 32 0 C32 7.92 32 15.84 32 24 C21.44 24 10.88 24 0 24 C0 16.08 0 8.16 0 0 Z " fill="#B5B2B3" transform="translate(864,480)"/>
<path d="M0 0 C10.56 0 21.12 0 32 0 C32 7.92 32 15.84 32 24 C21.44 24 10.88 24 0 24 C0 16.08 0 8.16 0 0 Z " fill="#B5B2B3" transform="translate(1184,416)"/>
<path d="M0 0 C10.56 0 21.12 0 32 0 C32 7.92 32 15.84 32 24 C24.08 24 16.16 24 8 24 C8 21.36 8 18.72 8 16 C5.36 16 2.72 16 0 16 C0 10.72 0 5.44 0 0 Z " fill="#B4B2B3" transform="translate(1208,1120)"/>
<path d="M0 0 C10.56 0 21.12 0 32 0 C32 7.92 32 15.84 32 24 C24.08 24 16.16 24 8 24 C8 21.36 8 18.72 8 16 C5.36 16 2.72 16 0 16 C0 10.72 0 5.44 0 0 Z " fill="#B4B2B3" transform="translate(952,1120)"/>
<path d="M0 0 C10.56 0 21.12 0 32 0 C32 7.92 32 15.84 32 24 C24.08 24 16.16 24 8 24 C8 21.36 8 18.72 8 16 C5.36 16 2.72 16 0 16 C0 10.72 0 5.44 0 0 Z " fill="#B4B2B3" transform="translate(1080,736)"/>
<path d="M0 0 C13.2 0 26.4 0 40 0 C40 2.64 40 5.28 40 8 C34.72 8 29.44 8 24 8 C24 10.64 24 13.28 24 16 C21.36 16 18.72 16 16 16 C16 18.64 16 21.28 16 24 C10.72 24 5.44 24 0 24 C0 16.08 0 8.16 0 0 Z " fill="#B5B2B3" transform="translate(1088,1088)"/>
<path d="M0 0 C13.2 0 26.4 0 40 0 C40 2.64 40 5.28 40 8 C34.72 8 29.44 8 24 8 C24 10.64 24 13.28 24 16 C21.36 16 18.72 16 16 16 C16 18.64 16 21.28 16 24 C10.72 24 5.44 24 0 24 C0 16.08 0 8.16 0 0 Z " fill="#B5B2B3" transform="translate(832,1088)"/>
<path d="M0 0 C13.2 0 26.4 0 40 0 C40 2.64 40 5.28 40 8 C34.72 8 29.44 8 24 8 C24 10.64 24 13.28 24 16 C21.36 16 18.72 16 16 16 C16 18.64 16 21.28 16 24 C10.72 24 5.44 24 0 24 C0 16.08 0 8.16 0 0 Z " fill="#B5B2B3" transform="translate(960,704)"/>
<path d="M0 0 C7.92 0 15.84 0 24 0 C24 7.92 24 15.84 24 24 C16.08 24 8.16 24 0 24 C0 16.08 0 8.16 0 0 Z " fill="#261D20" transform="translate(1288,1696)"/>
<path d="M0 0 C7.92 0 15.84 0 24 0 C24 7.92 24 15.84 24 24 C16.08 24 8.16 24 0 24 C0 16.08 0 8.16 0 0 Z " fill="#261D20" transform="translate(680,1696)"/>
<path d="M0 0 C7.92 0 15.84 0 24 0 C24 7.92 24 15.84 24 24 C16.08 24 8.16 24 0 24 C0 16.08 0 8.16 0 0 Z " fill="#B5B2B3" transform="translate(576,1312)"/>
<path d="M0 0 C7.92 0 15.84 0 24 0 C24 7.92 24 15.84 24 24 C16.08 24 8.16 24 0 24 C0 16.08 0 8.16 0 0 Z " fill="#B5B2B3" transform="translate(960,1248)"/>
<path d="M0 0 C7.92 0 15.84 0 24 0 C24 7.92 24 15.84 24 24 C16.08 24 8.16 24 0 24 C0 16.08 0 8.16 0 0 Z " fill="#B5B2B3" transform="translate(576,1248)"/>
<path d="M0 0 C7.92 0 15.84 0 24 0 C24 7.92 24 15.84 24 24 C16.08 24 8.16 24 0 24 C0 16.08 0 8.16 0 0 Z " fill="#B5B2B3" transform="translate(1216,1184)"/>
<path d="M0 0 C7.92 0 15.84 0 24 0 C24 7.92 24 15.84 24 24 C16.08 24 8.16 24 0 24 C0 16.08 0 8.16 0 0 Z " fill="#B5B2B3" transform="translate(960,1184)"/>
<path d="M0 0 C7.92 0 15.84 0 24 0 C24 7.92 24 15.84 24 24 C16.08 24 8.16 24 0 24 C0 16.08 0 8.16 0 0 Z " fill="#B5B2B3" transform="translate(576,1184)"/>
<path d="M0 0 C7.92 0 15.84 0 24 0 C24 7.92 24 15.84 24 24 C16.08 24 8.16 24 0 24 C0 16.08 0 8.16 0 0 Z " fill="#B5B2B3" transform="translate(576,1120)"/>
<path d="M0 0 C7.92 0 15.84 0 24 0 C24 7.92 24 15.84 24 24 C16.08 24 8.16 24 0 24 C0 16.08 0 8.16 0 0 Z " fill="#B5B2B3" transform="translate(576,1056)"/>
<path d="M0 0 C7.92 0 15.84 0 24 0 C24 7.92 24 15.84 24 24 C16.08 24 8.16 24 0 24 C0 16.08 0 8.16 0 0 Z " fill="#B4B2B3" transform="translate(1280,960)"/>
<path d="M0 0 C7.92 0 15.84 0 24 0 C24 7.92 24 15.84 24 24 C16.08 24 8.16 24 0 24 C0 16.08 0 8.16 0 0 Z " fill="#B4B2B3" transform="translate(1248,960)"/>
<path d="M0 0 C7.92 0 15.84 0 24 0 C24 7.92 24 15.84 24 24 C16.08 24 8.16 24 0 24 C0 16.08 0 8.16 0 0 Z " fill="#B5B2B3" transform="translate(1152,960)"/>
<path d="M0 0 C7.92 0 15.84 0 24 0 C24 7.92 24 15.84 24 24 C16.08 24 8.16 24 0 24 C0 16.08 0 8.16 0 0 Z " fill="#B4B2B3" transform="translate(1120,960)"/>
<path d="M0 0 C7.92 0 15.84 0 24 0 C24 7.92 24 15.84 24 24 C16.08 24 8.16 24 0 24 C0 16.08 0 8.16 0 0 Z " fill="#B4B2B3" transform="translate(1024,960)"/>
<path d="M0 0 C7.92 0 15.84 0 24 0 C24 7.92 24 15.84 24 24 C16.08 24 8.16 24 0 24 C0 16.08 0 8.16 0 0 Z " fill="#B4B2B3" transform="translate(992,960)"/>
<path d="M0 0 C7.92 0 15.84 0 24 0 C24 7.92 24 15.84 24 24 C16.08 24 8.16 24 0 24 C0 16.08 0 8.16 0 0 Z " fill="#B4B2B3" transform="translate(896,960)"/>
<path d="M0 0 C7.92 0 15.84 0 24 0 C24 7.92 24 15.84 24 24 C16.08 24 8.16 24 0 24 C0 16.08 0 8.16 0 0 Z " fill="#B4B2B3" transform="translate(864,960)"/>
<path d="M0 0 C7.92 0 15.84 0 24 0 C24 7.92 24 15.84 24 24 C16.08 24 8.16 24 0 24 C0 16.08 0 8.16 0 0 Z " fill="#B5B2B3" transform="translate(768,960)"/>
<path d="M0 0 C7.92 0 15.84 0 24 0 C24 7.92 24 15.84 24 24 C16.08 24 8.16 24 0 24 C0 16.08 0 8.16 0 0 Z " fill="#B4B2B3" transform="translate(736,960)"/>
<path d="M0 0 C7.92 0 15.84 0 24 0 C24 7.92 24 15.84 24 24 C16.08 24 8.16 24 0 24 C0 16.08 0 8.16 0 0 Z " fill="#B5B2B3" transform="translate(1088,928)"/>
<path d="M0 0 C7.92 0 15.84 0 24 0 C24 7.92 24 15.84 24 24 C16.08 24 8.16 24 0 24 C0 16.08 0 8.16 0 0 Z " fill="#B5B2B3" transform="translate(704,928)"/>
<path d="M0 0 C7.92 0 15.84 0 24 0 C24 7.92 24 15.84 24 24 C16.08 24 8.16 24 0 24 C0 16.08 0 8.16 0 0 Z " fill="#B5B2B3" transform="translate(1088,864)"/>
<path d="M0 0 C7.92 0 15.84 0 24 0 C24 7.92 24 15.84 24 24 C16.08 24 8.16 24 0 24 C0 16.08 0 8.16 0 0 Z " fill="#B5B2B3" transform="translate(704,864)"/>
<path d="M0 0 C7.92 0 15.84 0 24 0 C24 7.92 24 15.84 24 24 C16.08 24 8.16 24 0 24 C0 16.08 0 8.16 0 0 Z " fill="#B5B2B3" transform="translate(1088,800)"/>
<path d="M0 0 C7.92 0 15.84 0 24 0 C24 7.92 24 15.84 24 24 C16.08 24 8.16 24 0 24 C0 16.08 0 8.16 0 0 Z " fill="#B5B2B3" transform="translate(704,800)"/>
<path d="M0 0 C7.92 0 15.84 0 24 0 C24 7.92 24 15.84 24 24 C16.08 24 8.16 24 0 24 C0 16.08 0 8.16 0 0 Z " fill="#B5B2B3" transform="translate(704,736)"/>
<path d="M0 0 C7.92 0 15.84 0 24 0 C24 7.92 24 15.84 24 24 C16.08 24 8.16 24 0 24 C0 16.08 0 8.16 0 0 Z " fill="#B5B2B3" transform="translate(704,672)"/>
<path d="M0 0 C7.92 0 15.84 0 24 0 C24 7.92 24 15.84 24 24 C16.08 24 8.16 24 0 24 C0 16.08 0 8.16 0 0 Z " fill="#B4B2B3" transform="translate(1152,576)"/>
<path d="M0 0 C7.92 0 15.84 0 24 0 C24 7.92 24 15.84 24 24 C16.08 24 8.16 24 0 24 C0 16.08 0 8.16 0 0 Z " fill="#B4B2B3" transform="translate(1120,576)"/>
<path d="M0 0 C7.92 0 15.84 0 24 0 C24 7.92 24 15.84 24 24 C16.08 24 8.16 24 0 24 C0 16.08 0 8.16 0 0 Z " fill="#B5B2B3" transform="translate(1024,576)"/>
<path d="M0 0 C7.92 0 15.84 0 24 0 C24 7.92 24 15.84 24 24 C16.08 24 8.16 24 0 24 C0 16.08 0 8.16 0 0 Z " fill="#B4B2B3" transform="translate(992,576)"/>
<path d="M0 0 C7.92 0 15.84 0 24 0 C24 7.92 24 15.84 24 24 C16.08 24 8.16 24 0 24 C0 16.08 0 8.16 0 0 Z " fill="#B4B2B3" transform="translate(896,576)"/>
<path d="M0 0 C7.92 0 15.84 0 24 0 C24 7.92 24 15.84 24 24 C16.08 24 8.16 24 0 24 C0 16.08 0 8.16 0 0 Z " fill="#B4B2B3" transform="translate(864,576)"/>
<path d="M0 0 C7.92 0 15.84 0 24 0 C24 7.92 24 15.84 24 24 C16.08 24 8.16 24 0 24 C0 16.08 0 8.16 0 0 Z " fill="#B4B2B3" transform="translate(1152,544)"/>
<path d="M0 0 C7.92 0 15.84 0 24 0 C24 7.92 24 15.84 24 24 C16.08 24 8.16 24 0 24 C0 16.08 0 8.16 0 0 Z " fill="#B4B2B3" transform="translate(960,544)"/>
<path d="M0 0 C7.92 0 15.84 0 24 0 C24 7.92 24 15.84 24 24 C16.08 24 8.16 24 0 24 C0 16.08 0 8.16 0 0 Z " fill="#B5B2B3" transform="translate(832,544)"/>
<path d="M0 0 C7.92 0 15.84 0 24 0 C24 7.92 24 15.84 24 24 C16.08 24 8.16 24 0 24 C0 16.08 0 8.16 0 0 Z " fill="#B4B2B3" transform="translate(1152,480)"/>
<path d="M0 0 C7.92 0 15.84 0 24 0 C24 7.92 24 15.84 24 24 C16.08 24 8.16 24 0 24 C0 16.08 0 8.16 0 0 Z " fill="#B4B2B3" transform="translate(960,480)"/>
<path d="M0 0 C7.92 0 15.84 0 24 0 C24 7.92 24 15.84 24 24 C16.08 24 8.16 24 0 24 C0 16.08 0 8.16 0 0 Z " fill="#B5B2B3" transform="translate(832,480)"/>
<path d="M0 0 C7.92 0 15.84 0 24 0 C24 7.92 24 15.84 24 24 C16.08 24 8.16 24 0 24 C0 16.08 0 8.16 0 0 Z " fill="#B5B2B3" transform="translate(832,416)"/>
<path d="M0 0 C10.56 0 21.12 0 32 0 C32 7.92 32 15.84 32 24 C29.36 24 26.72 24 24 24 C24 21.36 24 18.72 24 16 C21.36 16 18.72 16 16 16 C16 13.36 16 10.72 16 8 C10.72 8 5.44 8 0 8 C0 5.36 0 2.72 0 0 Z " fill="#B5B2B3" transform="translate(1176,1088)"/>
<path d="M0 0 C10.56 0 21.12 0 32 0 C32 7.92 32 15.84 32 24 C29.36 24 26.72 24 24 24 C24 21.36 24 18.72 24 16 C21.36 16 18.72 16 16 16 C16 13.36 16 10.72 16 8 C10.72 8 5.44 8 0 8 C0 5.36 0 2.72 0 0 Z " fill="#B5B2B3" transform="translate(920,1088)"/>
<path d="M0 0 C10.56 0 21.12 0 32 0 C32 7.92 32 15.84 32 24 C29.36 24 26.72 24 24 24 C24 21.36 24 18.72 24 16 C21.36 16 18.72 16 16 16 C16 13.36 16 10.72 16 8 C10.72 8 5.44 8 0 8 C0 5.36 0 2.72 0 0 Z " fill="#B5B2B3" transform="translate(1048,704)"/>
<path d="M0 0 C5.28 0 10.56 0 16 0 C16 7.92 16 15.84 16 24 C10.72 24 5.44 24 0 24 C0 16.08 0 8.16 0 0 Z " fill="#010000" transform="translate(1104,1568)"/>
</svg>
